<?xml version="1.0" encoding="UTF-8"?>
<!DOCTYPE svg PUBLIC "-//W3C//DTD SVG 1.1//EN" "http://www.w3.org/Graphics/SVG/1.1/DTD/svg11.dtd">
<!-- Creator: CorelDRAW X7 -->
<svg xmlns="http://www.w3.org/2000/svg" xml:space="preserve" width="6.8802in" height="5.47357in" version="1.1" style="shape-rendering:geometricPrecision; text-rendering:geometricPrecision; image-rendering:optimizeQuality; fill-rule:evenodd; clip-rule:evenodd"
viewBox="0 0 7424 5906"
 xmlns:xlink="http://www.w3.org/1999/xlink">
 <defs>
  <style type="text/css">
   <![CDATA[
    .str6 {stroke:#FEFEFE;stroke-width:7.49415;stroke-opacity:0.811765}
    .str2 {stroke:#12437B;stroke-width:37.4665}
    .str4 {stroke:#373435;stroke-width:29.9723}
    .str5 {stroke:#4E6F90;stroke-width:29.9723}
    .str0 {stroke:#FEFEFE;stroke-width:7.49415}
    .str7 {stroke:#4E6F90;stroke-width:7.49415}
    .str3 {stroke:#F5E5CC;stroke-width:7.49415}
    .str1 {stroke:#F5E5CC;stroke-width:3.23727}
    .fil2 {fill:none}
    .fil1 {fill:#FEFEFE}
    .fil16 {fill:#96989A}
    .fil15 {fill:#02B6E2}
    .fil9 {fill:#12437B}
    .fil11 {fill:#356777}
    .fil3 {fill:#4E6F90}
    .fil10 {fill:#4F7175}
    .fil17 {fill:#6C946A}
    .fil8 {fill:#958877}
    .fil19 {fill:#96CD4A}
    .fil14 {fill:#9ECE5E}
    .fil4 {fill:#C2E6FA}
    .fil0 {fill:#D9EFFC}
    .fil5 {fill:#E6E6E6}
    .fil12 {fill:#EE917F}
    .fil18 {fill:#F4EAAF}
    .fil7 {fill:#F5E5CC}
    .fil21 {fill:#F5E5CC}
    .fil13 {fill:#F9D788}
    .fil6 {fill:#FCFCFA}
    .fil20 {fill:#373435;fill-rule:nonzero;fill-opacity:0.600000}
    .fil22 {fill:#FEFEFE;fill-opacity:0.811765}
   ]]>
  </style>
       <clipPath id="id0">
        <path d="M0 5575c605,-25 1286,-5 1897,0l3614 0c634,0 1281,-13 1913,-2l0 -5573 -7424 0 0 5575z"/>
       </clipPath>
       <clipPath id="id1">
        <path d="M2763 1772l-16 273c9,12 77,464 88,529 -61,58 -110,12 -118,149 -4,79 17,149 88,177 38,-53 19,-57 -18,-106 -68,-90 -8,-167 110,-163 11,251 12,190 -57,256l38 21c42,40 20,391 15,448 -280,9 -452,-59 -458,157 -2,71 15,251 -8,302 -13,29 -119,127 -148,147 1,68 3,28 29,77l-167 130c-275,131 -223,-814 -195,-1022l34 -197c8,-37 2,-27 7,-59 17,-105 6,-48 64,-81 109,-63 42,-131 -6,-187 12,-86 39,-247 18,-325 -50,-51 -52,-40 -131,-33l-36 200c-54,11 -354,-5 -254,262 23,63 37,62 87,94 -59,264 -78,507 -81,785l16 288c-61,13 -150,8 -201,61 -40,42 -58,121 -38,194l-171 48c-36,45 -107,119 -149,144 -65,-30 -50,-38 -122,-56 -1,103 5,109 52,158 71,73 37,61 44,170 8,128 82,231 156,271l6 133c-38,14 -61,-6 -111,32 68,53 533,26 619,26 1482,4 3067,-28 4519,0 -26,-64 -87,-60 -45,-52 17,-106 24,-508 -9,-580 -71,-27 -347,-21 -440,-9 -78,81 11,34 -112,103 -167,92 -165,315 63,396l29 94 -788 -4c62,-112 42,-29 210,-108 335,-158 325,-409 134,-678 -17,-24 -56,-73 -83,-110 -44,-63 -57,-43 -95,-103 -20,-67 121,62 -107,-173 -63,-64 -36,-196 -37,-313 1,-98 -14,-156 -101,-180l-356 -2c-8,-155 6,-285 6,-438 85,-54 145,-18 169,-148 26,-149 -91,-173 -119,-196 49,-195 89,-588 -19,-773 -46,-79 -128,-65 -229,-59 -85,-308 -496,-257 -773,-143 -187,77 -416,190 -608,63 -45,-29 -36,-27 -61,-69l-59 -86c-32,27 -3,-7 -29,32 -28,44 -49,190 -46,233z"/>
       </clipPath>
       <clipPath id="id2">
        <path d="M2344 1005c55,107 125,146 122,332 -3,172 -88,227 -129,325 63,-15 171,-17 242,0 82,20 127,67 184,110 -3,-43 18,-189 46,-233 26,-39 -3,-5 29,-32l59 86c25,42 16,40 61,69 192,127 421,14 608,-63 277,-114 688,-165 773,143 101,-6 183,-20 229,59 108,185 68,578 19,773 28,23 145,47 119,196 -24,130 -84,94 -169,148 0,153 -14,283 -6,438l356 2c-105,-62 -29,-95 -68,-193 0,0 -13,-21 -17,-30 -12,-33 -17,-83 24,-100l60 9c53,21 -33,-91 14,8 -138,1 -54,-12 -82,50 24,52 -48,-32 22,25l91 74c-23,-687 -18,-612 332,-612 107,0 374,-13 460,3 137,27 103,231 102,378 45,-33 34,-27 146,-26 62,1 123,0 184,1l209 -6c77,7 41,2 68,31l95 -10c25,69 15,151 15,224 -1,65 -20,167 24,216l4 -27 -5 -471 66 1c44,-114 174,-150 117,-369 -43,-164 -146,-176 -275,-240l-1165 0c-75,38 -283,-85 -310,-285 -37,-278 208,-322 265,-388 35,44 34,42 176,26 -1,79 -26,122 70,136 105,17 117,-30 117,-117 42,-11 169,-81 182,-115 5,2 13,-2 17,5 4,7 12,4 17,4 91,9 96,-16 102,-16l81 27c3,1 8,3 12,4 125,57 6,153 232,108 66,-146 -14,-100 52,-162 39,-36 99,-107 131,-131 68,-53 162,17 178,-103 16,-119 -91,-132 -179,-99 -55,148 26,67 -95,186 -29,28 -47,45 -75,75 -75,81 -11,26 -109,46 -5,1 -10,2 -14,3 -96,28 10,44 -65,21l-54 -23c-129,-55 -33,-84 -159,-127 29,-73 -31,-351 -336,-358 -107,-2 -149,-8 -235,17 49,446 -70,482 -491,484 -199,1 -288,17 -395,-111 -103,-122 -61,-269 -37,-428l-47 39c-116,0 -730,27 -785,-16 -62,50 -127,280 -166,360l-216 5c-112,-24 -4,-142 67,-351l-632 2c69,-41 52,-9 66,-104 -104,14 -34,-3 -108,37 -208,111 19,72 -221,60z"/>
       </clipPath>
       <clipPath id="id3">
        <path d="M2499 3412c-28,97 -26,1512 4,1603l262 9c-26,-43 -18,-84 -4,-137 79,-38 240,-36 321,0 20,67 20,85 -2,140l82 -6 -16 -187c7,-54 -8,19 6,-29 30,-103 316,-58 320,-28l17 41c4,16 4,47 4,65 0,65 3,95 -16,146l82 -8c-28,-58 -25,-419 -9,-492 64,-31 266,-24 327,-8 23,104 32,416 -4,508l83 -8c-32,-64 -32,-682 6,-728 24,-24 286,-60 310,17 8,25 6,7 11,45 15,112 7,621 -13,676 20,-15 66,-12 75,-15l-7 -1084c93,-31 233,-38 331,-6 26,110 13,768 13,975 0,23 1,45 -1,68 -11,115 -13,47 -14,47l255 5c30,-109 32,-1511 2,-1607 -126,-19 -2277,-20 -2425,-2z"/>
       </clipPath>
       <clipPath id="id4">
        <path d="M0 5575l0 331 7424 0 0 -333c-632,-11 -1279,2 -1913,2l-3614 0c-611,-5 -1292,-25 -1897,0z"/>
       </clipPath>
       <clipPath id="id5">
        <path d="M2947 2710c8,-91 -20,-85 56,-121l10 135 184 0c4,-87 -9,-201 70,-227 109,-35 131,73 130,109 -6,146 9,34 -31,83l-27 -46c-59,-125 -81,-120 -74,63 66,48 96,-20 96,49 0,60 -5,14 -29,25 -31,14 -42,4 -68,25l0 231c73,49 83,5 80,93 -195,-55 -143,-117 -145,-337l-183 -16c2,445 26,202 85,326 -54,39 -128,-1 -147,-68 -17,-60 -3,-169 -10,-235l3 555 1530 3 2 -866c-9,-406 1,-336 -466,-238 -626,132 -1029,-235 -1065,27 -7,47 -10,397 -1,430z"/>
       </clipPath>
       <clipPath id="id6">
        <path d="M2063 2298c21,78 -6,239 -18,325 48,56 115,124 6,187 -58,33 -47,-24 -64,81 -5,32 1,22 -7,59l-34 197c-28,208 -80,1153 195,1022l167 -130c-26,-49 -28,-9 -29,-77 29,-20 135,-118 148,-147 23,-51 6,-231 8,-302 6,-216 178,-148 458,-157 5,-57 27,-408 -15,-448l-38 -21c69,-66 68,-5 57,-256 -118,-4 -178,73 -110,163 37,49 56,53 18,106 -71,-28 -92,-98 -88,-177 8,-137 57,-91 118,-149 -11,-65 -79,-517 -88,-529 -31,101 42,111 -28,177 -41,39 -107,65 -179,73 -96,10 -385,13 -477,3z"/>
       </clipPath>
       <clipPath id="id7">
        <path d="M2854 1600c-136,331 44,932 33,974 11,-217 -67,-514 241,-445 586,130 561,143 1168,0 347,-81 201,312 241,452 32,-95 55,-408 43,-520 -36,-327 -134,-262 -284,-251 -52,-354 -478,-250 -703,-160 -215,87 -515,227 -708,16 -75,-81 -34,-60 -31,-66z"/>
       </clipPath>
       <clipPath id="id8">
        <path d="M4386 973c-24,159 -66,306 37,428 107,128 196,112 395,111 421,-2 540,-38 491,-484 -69,-347 -293,-258 -253,-442 16,-69 62,-116 35,-199 -104,3 -128,22 -240,-8 -116,-31 -156,-22 -269,-3 0,180 74,177 50,262 -42,144 -75,50 -166,181 -31,46 -60,98 -80,154z"/>
       </clipPath>
       <clipPath id="id9">
        <path d="M2337 1662c41,-98 126,-153 129,-325 3,-186 -67,-225 -122,-332 -89,-57 -164,-149 -364,-134 -278,20 -475,290 -404,570 17,66 47,116 85,164 28,35 32,40 66,68l74 59c30,74 -63,243 55,305 43,23 55,25 92,97 168,19 111,-25 201,-84 3,-2 8,-4 11,-6 87,-54 60,-22 67,-329 52,-21 59,-39 110,-53z"/>
       </clipPath>
       <clipPath id="id10">
        <path d="M379 2184l1 533 981 8c10,-54 19,-47 49,-76l32 -35c3,-2 6,-6 8,-9 22,-18 22,-13 50,-25l-2 -522c-108,-42 -806,-20 -970,-10l-65 81c-68,69 46,22 -84,55z"/>
       </clipPath>
       <clipPath id="id11">
        <path d="M5308 2294l1165 0 239 -3c36,-8 15,0 37,-14 -27,-20 -76,-14 -85,-50 0,-133 17,-642 -10,-731 -405,-41 -224,12 -264,683 -1,21 0,25 -5,44 -11,42 3,11 -17,35 -49,-18 -33,11 -38,-78 -2,-31 2,-84 2,-118 1,-78 6,-161 -5,-238l-265 -8c-16,117 5,347 -9,407l-9 24c-1,2 -3,7 -6,11 -22,-8 -41,15 -40,-112l-2 -437c-78,-24 -185,-15 -268,-7 -8,124 33,478 -19,555 -50,-14 -28,4 -42,-46l-3 -285c-76,-28 -185,-14 -269,-11l-4 341c-113,1 -64,-11 -83,38z"/>
       </clipPath>
       <clipPath id="id12">
        <path d="M4931 3201c44,72 49,80 149,86 7,97 -9,70 23,114 34,3 115,-72 163,-97 66,-35 192,-18 278,-18 298,1 287,-10 281,-316 1,-147 35,-351 -102,-378 -86,-16 -353,-3 -460,-3 -350,0 -355,-75 -332,612z"/>
       </clipPath>
       <clipPath id="id13">
        <path d="M1286 4839l1 144c69,3 46,-15 143,10l2 -85 317 -6c35,51 3,49 33,83l123 -1 1 -124c87,-35 100,-79 155,-159 79,-112 77,29 124,-219 -104,4 -80,18 -112,-58 -60,-141 -75,-140 -147,-194 -75,-56 -33,-34 -54,-126 -189,77 -71,175 -255,180 -113,4 -113,-49 -163,-76 -60,-31 -162,21 -225,90 -115,125 -146,292 -65,429 33,56 55,91 122,112z"/>
       </clipPath>
       <clipPath id="id14">
        <path d="M5310 4237l466 -2c53,-205 -37,-154 64,-222 77,54 51,109 51,216 43,-8 43,41 35,-154 -5,-115 -12,-134 96,-148 25,66 16,147 16,236 56,-18 31,-98 40,-187 99,-32 66,27 86,-33 17,-103 -22,-159 -68,-223 -150,-210 -604,-104 -963,-129 -82,-6 -104,-11 -145,-53 1,117 -26,249 37,313 228,235 87,106 107,173 38,60 51,40 95,103 27,37 66,86 83,110z"/>
       </clipPath>
       <clipPath id="id15">
        <path d="M4801 1475c277,0 529,28 480,-371 -50,-412 -273,-393 -480,-392 -261,0 -356,153 -391,395 -44,304 96,368 391,368z"/>
       </clipPath>
       <clipPath id="id16">
        <path d="M6432 2970c-177,32 -307,164 -352,321 -116,401 294,723 649,550 108,-53 304,-246 244,-437l-407 -4c-44,-49 -25,-151 -24,-216 0,-73 10,-155 -15,-224l-95 10z"/>
       </clipPath>
       <clipPath id="id17">
        <path d="M5117 3250l7 94c95,-55 116,-96 254,-96 466,1 408,65 410,-394 0,-105 21,-205 -83,-225l-524 -3c-253,0 -220,31 -217,278 3,306 -35,340 153,346z"/>
       </clipPath>
       <clipPath id="id18">
        <path d="M1096 3821c45,-17 96,-25 151,-82 19,-20 44,-46 62,-72 27,-41 19,-48 51,-80 -4,-139 13,-329 -187,-422 -172,-80 -380,-36 -488,60 -177,159 -180,669 411,596z"/>
       </clipPath>
       <clipPath id="id19">
        <path d="M1914 1770c32,-51 18,-221 20,-302 -42,-19 -70,3 -105,-50 -53,-80 56,-185 131,-96 52,62 -21,67 53,84 80,-17 3,-141 169,-105 83,130 1,131 -87,167l0 304c163,0 -17,32 169,-136 430,-388 -134,-982 -543,-592 -26,25 -6,3 -24,24 -139,161 -116,406 77,572 170,147 -23,127 140,130z"/>
       </clipPath>
       <clipPath id="id20">
        <path d="M428 2673l892 2 0 -448 -891 -2 -1 448z"/>
       </clipPath>
       <clipPath id="id21">
        <path d="M6799 3745c-31,-59 -196,-206 -251,-262 -77,-77 -39,-277 -45,-482 -268,14 -499,284 -373,588 93,226 438,377 669,156z"/>
       </clipPath>
       <clipPath id="id22">
        <path d="M863 3181c-173,43 -275,203 -229,377 11,38 28,72 49,99 228,293 631,36 540,-263 -55,-179 -229,-245 -360,-213z"/>
       </clipPath>
       <clipPath id="id23">
        <path d="M1775 2819c-78,285 -93,682 -68,985 15,189 73,121 88,268l133 -33c4,133 -16,99 46,154 2,2 6,5 9,8l97 105c26,36 30,59 48,96 147,-28 227,-125 308,-183l0 -97c-36,-25 -50,-25 -77,-62 -65,50 -187,195 -331,162 -264,-242 -143,-1050 -78,-1386 -90,-70 -76,-26 -175,-17z"/>
       </clipPath>
       <clipPath id="id24">
        <path d="M1096 3821c6,104 -5,172 43,254 14,25 32,56 62,84 38,35 36,6 53,38l171 -48c-20,-73 -2,-152 38,-194 51,-53 140,-48 201,-61l-16 -288c-59,-14 -86,-16 -147,-14 -65,2 -106,18 -141,-5 -32,32 -24,39 -51,80 -18,26 -43,52 -62,72 -55,57 -106,65 -151,82z"/>
       </clipPath>
       <clipPath id="id25">
        <path d="M2203 4437c35,88 40,200 -58,266 -100,69 -42,91 -136,160 -94,70 -28,37 -62,161l510 -1c-61,-125 15,-590 -30,-734 3,11 36,-10 -31,35 -28,19 -28,17 -61,42 -51,38 -67,36 -132,71z"/>
       </clipPath>
       <clipPath id="id26">
        <path d="M843 3246c-305,119 -147,574 168,470 110,-36 210,-166 153,-326 -40,-115 -177,-200 -321,-144z"/>
       </clipPath>
       <clipPath id="id27">
        <path d="M6173 4983l10 -498 -392 -6c0,148 -10,320 -2,454 5,88 166,49 384,50z"/>
       </clipPath>
       <clipPath id="id28">
        <path d="M3239 1010c-71,209 -179,327 -67,351l216 -5c39,-80 104,-310 166,-360 3,-68 21,-85 48,-149l36 -104c-9,-73 -1,-15 -22,-39l-225 -8c-68,66 -102,224 -152,314z"/>
       </clipPath>
       <clipPath id="id29">
        <path d="M6570 3373l472 10c19,-266 -178,-445 -411,-480l-66 -1 5 471z"/>
       </clipPath>
       <clipPath id="id30">
        <path d="M4987 4123c5,150 -14,64 116,228 149,188 163,325 -114,379l2 192c68,-36 414,-86 399,-368 -6,-120 -95,-249 -158,-334l-148 -164c-21,33 -64,48 -97,67z"/>
       </clipPath>
       <clipPath id="id31">
        <path d="M6441 2255l186 2 1 -722 -197 -5c-3,60 -17,653 10,725z"/>
       </clipPath>
       <clipPath id="id32">
        <path d="M863 3281c-121,44 -171,148 -135,264 31,97 133,177 264,136 269,-84 140,-497 -129,-400z"/>
       </clipPath>
       <clipPath id="id33">
        <path d="M6602 3344l402 1c1,-225 -187,-389 -402,-406l0 405z"/>
       </clipPath>
       <clipPath id="id34">
        <path d="M3158 1313c65,20 138,13 207,6 37,-114 232,-507 228,-586l-184 0c-51,68 -213,479 -251,580z"/>
       </clipPath>
       <clipPath id="id35">
        <path d="M2947 2710l-3 89c7,66 -7,175 10,235 19,67 93,107 147,68 -59,-124 -83,119 -85,-326l183 16c2,220 -50,282 145,337 3,-88 -7,-44 -80,-93l0 -231c26,-21 37,-11 68,-25 24,-11 29,35 29,-25 0,-69 -30,-1 -96,-49 -7,-183 15,-188 74,-63l27 46c40,-49 25,63 31,-83 1,-36 -21,-144 -130,-109 -79,26 -66,140 -70,227l-184 0 -10 -135c-76,36 -48,30 -56,121z"/>
       </clipPath>
       <clipPath id="id36">
        <path d="M3632 4057c-95,48 -126,131 -85,233 38,95 146,142 251,87 197,-102 52,-429 -166,-320z"/>
       </clipPath>
       <clipPath id="id37">
        <path d="M5763 2254l195 3 4 -521 -197 2 -2 516z"/>
       </clipPath>
       <clipPath id="id38">
        <path d="M5366 2887c40,50 19,14 55,50 0,205 1,184 186,175 35,-16 36,-93 40,-129 16,-140 111,-85 -20,-211 -14,-13 -29,-30 -42,-40 -42,-33 12,-12 -58,-35 -24,14 -145,140 -161,190z"/>
       </clipPath>
       <clipPath id="id39">
        <path d="M5109 2937c-32,30 -23,14 -51,49 25,63 95,131 156,162 81,-17 132,-90 169,-162l-57 -49c0,-139 40,-192 -96,-189 -143,2 -122,57 -121,189z"/>
       </clipPath>
       <clipPath id="id40">
        <path d="M6095 2251l199 5 -1 -397 -195 -4 -3 396z"/>
       </clipPath>
       <clipPath id="id41">
        <path d="M4701 596c64,26 208,25 291,9 38,-50 58,-103 73,-181 -219,26 -460,-109 -433,41 11,63 38,105 69,131z"/>
       </clipPath>
       <clipPath id="id42">
        <path d="M3746 1075c-103,-9 -197,-19 -222,72 -25,91 -3,181 70,208 203,74 297,-136 152,-280z"/>
       </clipPath>
       <clipPath id="id43">
        <path d="M2956 756l-5 172c109,86 176,88 283,3 11,-94 17,-194 -61,-227 -100,-42 -165,6 -217,52z"/>
       </clipPath>
       <clipPath id="id44">
        <path d="M4828 1126l-1 90c-72,-5 -11,-5 -56,-17 -14,-4 -23,-25 -69,5 31,81 54,31 118,95l31 37 20 -31c40,-45 48,-29 111,-78 13,-124 -23,-131 -113,-165l1 -98c67,17 50,33 97,9 -10,-76 26,-17 -75,-73l-32 -22c-2,-2 -6,-6 -9,-9 -4,2 -9,2 -11,8l-54 32c-3,2 -8,3 -12,5 -39,20 -53,16 -60,77 -13,106 50,101 114,135z"/>
       </clipPath>
       <clipPath id="id45">
        <path d="M1559 3964c-180,97 -62,317 100,252 180,-71 46,-331 -100,-252z"/>
       </clipPath>
       <clipPath id="id46">
        <path d="M5433 2251l193 7 5 -64 -1 -181 -4 -62 -192 2 -1 298z"/>
       </clipPath>
       <clipPath id="id47">
        <path d="M6831 3708c72,-54 106,-146 117,-264l-151 -2 -16 1 -199 -1c35,74 186,203 249,266z"/>
       </clipPath>
       <clipPath id="id48">
        <path d="M1749 2777l82 -13c31,-101 31,-86 120,-124 -44,-248 -426,-80 -202,137z"/>
       </clipPath>
       <clipPath id="id49">
        <path d="M1849 1922l146 4c41,12 14,0 39,21l-87 23c-53,4 -57,-6 -98,10 67,44 238,26 329,16l0 -99c-90,-8 -137,17 -184,-33 73,-43 66,2 177,-28 4,-1 9,-3 13,-5 -4,-2 -10,-9 -13,-5l-324 -9 2 105z"/>
       </clipPath>
       <clipPath id="id50">
        <path d="M3003 922c142,106 266,-60 180,-163 -45,-54 -270,-64 -180,163z"/>
       </clipPath>
       <clipPath id="id51">
        <path d="M3742 1301c60,-51 31,-128 10,-182 -343,-77 -191,327 -10,182z"/>
       </clipPath>
       <clipPath id="id52">
        <path d="M5157 2970c-4,3 -10,3 -13,10l-43 15 122 112 123 -105 -63 -25 4 -188 -127 11 -3 170z"/>
       </clipPath>
       <clipPath id="id53">
        <path d="M4988 4405l0 279c106,-47 90,-28 169,-97 -8,-107 -106,-223 -169,-298l0 116z"/>
       </clipPath>
       <clipPath id="id54">
        <path d="M847 3401c8,84 32,47 67,113 -4,2 -11,0 -13,5 -21,54 8,-32 -61,35 54,27 45,8 84,54 179,-151 37,-92 17,-193l27 -10c1,-1 7,-2 8,-2 8,-3 9,-1 24,-15 -21,-17 -47,-30 -75,-50 -49,36 -43,12 -78,63z"/>
       </clipPath>
       <clipPath id="id55">
        <path d="M4539 2864c61,-16 90,-37 119,-76 15,-86 -33,-189 -121,-149l2 225z"/>
       </clipPath>
     <clipPath id="id56">
      <path d="M4385 4029l241 1 1 -71 -239 1 -3 69z"/>
     </clipPath>
     <clipPath id="id57">
      <path d="M4385 4118l241 1 1 -71 -239 1 -3 69z"/>
     </clipPath>
     <clipPath id="id58">
      <path d="M4385 4207l241 1 1 -70 -239 0 -3 69z"/>
     </clipPath>
     <clipPath id="id59">
      <path d="M4385 4296l241 2 1 -71 -239 0 -3 69z"/>
     </clipPath>
     <clipPath id="id60">
      <path d="M4385 4385l241 2 1 -71 -239 0 -3 69z"/>
     </clipPath>
     <clipPath id="id61">
      <path d="M4385 4475l241 1 1 -71 -239 1 -3 69z"/>
     </clipPath>
     <clipPath id="id62">
      <path d="M4385 4564l241 1 1 -71 -239 1 -3 69z"/>
     </clipPath>
     <clipPath id="id63">
      <path d="M4385 4653l241 2 1 -71 -239 0 -3 69z"/>
     </clipPath>
     <clipPath id="id64">
      <path d="M4385 4742l241 2 1 -71 -239 0 -3 69z"/>
     </clipPath>
     <clipPath id="id65">
      <path d="M4385 4832l241 1 1 -71 -239 0 -3 70z"/>
     </clipPath>
     <clipPath id="id66">
      <path d="M4385 4921l241 1 1 -71 -239 1 -3 69z"/>
     </clipPath>
     <clipPath id="id67">
      <path d="M4385 5010l241 1 1 -70 -239 0 -3 69z"/>
     </clipPath>
     <clipPath id="id68">
      <path d="M3989 4389l235 0 9 -69 -241 0 -3 69z"/>
     </clipPath>
     <clipPath id="id69">
      <path d="M3989 4478l235 0 9 -69 -241 0 -3 69z"/>
     </clipPath>
     <clipPath id="id70">
      <path d="M3989 4567l235 0 9 -69 -241 0 -3 69z"/>
     </clipPath>
     <clipPath id="id71">
      <path d="M3989 4656l235 0 9 -68 -241 -1 -3 69z"/>
     </clipPath>
     <clipPath id="id72">
      <path d="M3989 4746l235 0 9 -69 -241 0 -3 69z"/>
     </clipPath>
     <clipPath id="id73">
      <path d="M3989 4835l235 0 9 -69 -241 0 -3 69z"/>
     </clipPath>
     <clipPath id="id74">
      <path d="M3989 4924l235 0 9 -69 -241 0 -3 69z"/>
     </clipPath>
     <clipPath id="id75">
      <path d="M3989 5013l235 0 9 -68 -241 -1 -3 69z"/>
     </clipPath>
     <clipPath id="id76">
      <path d="M3600 4632l234 0 10 -70 -242 1 -2 69z"/>
     </clipPath>
     <clipPath id="id77">
      <path d="M3600 4721l234 0 10 -70 -242 1 -2 69z"/>
     </clipPath>
     <clipPath id="id78">
      <path d="M3600 4810l234 0 10 -70 -242 1 -2 69z"/>
     </clipPath>
     <clipPath id="id79">
      <path d="M3600 4899l234 0 10 -69 -242 1 -2 68z"/>
     </clipPath>
     <clipPath id="id80">
      <path d="M3600 4989l234 0 10 -70 -242 1 -2 69z"/>
     </clipPath>
     <clipPath id="id81">
      <path d="M3196 4867l232 0 11 -68 -240 -1 -3 69z"/>
     </clipPath>
     <clipPath id="id82">
      <path d="M3196 4956l232 0 11 -68 -240 0 -3 68z"/>
     </clipPath>
     <clipPath id="id83">
      <path d="M3196 5046l232 0 11 -69 -240 0 -3 69z"/>
     </clipPath>
     <clipPath id="id84">
      <path d="M2785 4999l276 0 13 -81 -286 -1 -3 82z"/>
     </clipPath>
    <clipPath id="id85">
     <path d="M3435 2838c-50,30 -30,137 -16,191 51,199 398,308 553,67 30,-47 115,-237 -45,-261l-492 3z"/>
    </clipPath>
 </defs>
 <g id="Layer_x0020_1">
  <metadata id="CorelCorpID_0Corel-Layer"/>
  <g id="_1233190112">
   <g>
    <g>
     <g>
      <path class="fil0" d="M0 5575c605,-25 1286,-5 1897,0l3614 0c634,0 1281,-13 1913,-2l0 -5573 -7424 0 0 5575z"/>
      <g style="clip-path:url(#id0)">
       <g>
        <path id="1" class="fil1 str0" d="M3435 2838c186,-6 316,-2 492,-3 81,21 102,60 94,109l-617 8c-7,-50 1,-89 31,-114z"/>
       </g>
      </g>
      <path class="fil2" d="M0 5575c605,-25 1286,-5 1897,0l3614 0c634,0 1281,-13 1913,-2l0 -5573 -7424 0 0 5575z"/>
      <path class="fil3" d="M2763 1772l-16 273c9,12 77,464 88,529 -61,58 -110,12 -118,149 -4,79 17,149 88,177 38,-53 19,-57 -18,-106 -68,-90 -8,-167 110,-163 11,251 12,190 -57,256l38 21c42,40 20,391 15,448 -280,9 -452,-59 -458,157 -2,71 15,251 -8,302 -13,29 -119,127 -148,147 1,68 3,28 29,77l-167 130c-275,131 -223,-814 -195,-1022l34 -197c8,-37 2,-27 7,-59 17,-105 6,-48 64,-81 109,-63 42,-131 -6,-187 12,-86 39,-247 18,-325 -50,-51 -52,-40 -131,-33l-36 200c-54,11 -354,-5 -254,262 23,63 37,62 87,94 -59,264 -78,507 -81,785l16 288c-61,13 -150,8 -201,61 -40,42 -58,121 -38,194l-171 48c-36,45 -107,119 -149,144 -65,-30 -50,-38 -122,-56 -1,103 5,109 52,158 71,73 37,61 44,170 8,128 82,231 156,271l6 133c-38,14 -61,-6 -111,32 68,53 533,26 619,26 1482,4 3067,-28 4519,0 -26,-64 -87,-60 -45,-52 17,-106 24,-508 -9,-580 -71,-27 -347,-21 -440,-9 -78,81 11,34 -112,103 -167,92 -165,315 63,396l29 94 -788 -4c62,-112 42,-29 210,-108 335,-158 325,-409 134,-678 -17,-24 -56,-73 -83,-110 -44,-63 -57,-43 -95,-103 -20,-67 121,62 -107,-173 -63,-64 -36,-196 -37,-313 1,-98 -14,-156 -101,-180l-356 -2c-8,-155 6,-285 6,-438 85,-54 145,-18 169,-148 26,-149 -91,-173 -119,-196 49,-195 89,-588 -19,-773 -46,-79 -128,-65 -229,-59 -85,-308 -496,-257 -773,-143 -187,77 -416,190 -608,63 -45,-29 -36,-27 -61,-69l-59 -86c-32,27 -3,-7 -29,32 -28,44 -49,190 -46,233z"/>
      <g style="clip-path:url(#id1)">
       <g>
        <path id="1" class="fil1 str0" d="M3435 2838c186,-6 316,-2 492,-3 81,21 102,60 94,109l-617 8c-7,-50 1,-89 31,-114z"/>
       </g>
      </g>
      <path class="fil2" d="M2763 1772l-16 273c9,12 77,464 88,529 -61,58 -110,12 -118,149 -4,79 17,149 88,177 38,-53 19,-57 -18,-106 -68,-90 -8,-167 110,-163 11,251 12,190 -57,256l38 21c42,40 20,391 15,448 -280,9 -452,-59 -458,157 -2,71 15,251 -8,302 -13,29 -119,127 -148,147 1,68 3,28 29,77l-167 130c-275,131 -223,-814 -195,-1022l34 -197c8,-37 2,-27 7,-59 17,-105 6,-48 64,-81 109,-63 42,-131 -6,-187 12,-86 39,-247 18,-325 -50,-51 -52,-40 -131,-33l-36 200c-54,11 -354,-5 -254,262 23,63 37,62 87,94 -59,264 -78,507 -81,785l16 288c-61,13 -150,8 -201,61 -40,42 -58,121 -38,194l-171 48c-36,45 -107,119 -149,144 -65,-30 -50,-38 -122,-56 -1,103 5,109 52,158 71,73 37,61 44,170 8,128 82,231 156,271l6 133c-38,14 -61,-6 -111,32 68,53 533,26 619,26 1482,4 3067,-28 4519,0 -26,-64 -87,-60 -45,-52 17,-106 24,-508 -9,-580 -71,-27 -347,-21 -440,-9 -78,81 11,34 -112,103 -167,92 -165,315 63,396l29 94 -788 -4c62,-112 42,-29 210,-108 335,-158 325,-409 134,-678 -17,-24 -56,-73 -83,-110 -44,-63 -57,-43 -95,-103 -20,-67 121,62 -107,-173 -63,-64 -36,-196 -37,-313 1,-98 -14,-156 -101,-180l-356 -2c-8,-155 6,-285 6,-438 85,-54 145,-18 169,-148 26,-149 -91,-173 -119,-196 49,-195 89,-588 -19,-773 -46,-79 -128,-65 -229,-59 -85,-308 -496,-257 -773,-143 -187,77 -416,190 -608,63 -45,-29 -36,-27 -61,-69l-59 -86c-32,27 -3,-7 -29,32 -28,44 -49,190 -46,233z"/>
      <path class="fil4" d="M2344 1005c55,107 125,146 122,332 -3,172 -88,227 -129,325 63,-15 171,-17 242,0 82,20 127,67 184,110 -3,-43 18,-189 46,-233 26,-39 -3,-5 29,-32l59 86c25,42 16,40 61,69 192,127 421,14 608,-63 277,-114 688,-165 773,143 101,-6 183,-20 229,59 108,185 68,578 19,773 28,23 145,47 119,196 -24,130 -84,94 -169,148 0,153 -14,283 -6,438l356 2c-105,-62 -29,-95 -68,-193 0,0 -13,-21 -17,-30 -12,-33 -17,-83 24,-100l60 9c53,21 -33,-91 14,8 -138,1 -54,-12 -82,50 24,52 -48,-32 22,25l91 74c-23,-687 -18,-612 332,-612 107,0 374,-13 460,3 137,27 103,231 102,378 45,-33 34,-27 146,-26 62,1 123,0 184,1l209 -6c77,7 41,2 68,31l95 -10c25,69 15,151 15,224 -1,65 -20,167 24,216l4 -27 -5 -471 66 1c44,-114 174,-150 117,-369 -43,-164 -146,-176 -275,-240l-1165 0c-75,38 -283,-85 -310,-285 -37,-278 208,-322 265,-388 35,44 34,42 176,26 -1,79 -26,122 70,136 105,17 117,-30 117,-117 42,-11 169,-81 182,-115 5,2 13,-2 17,5 4,7 12,4 17,4 91,9 96,-16 102,-16l81 27c3,1 8,3 12,4 125,57 6,153 232,108 66,-146 -14,-100 52,-162 39,-36 99,-107 131,-131 68,-53 162,17 178,-103 16,-119 -91,-132 -179,-99 -55,148 26,67 -95,186 -29,28 -47,45 -75,75 -75,81 -11,26 -109,46 -5,1 -10,2 -14,3 -96,28 10,44 -65,21l-54 -23c-129,-55 -33,-84 -159,-127 29,-73 -31,-351 -336,-358 -107,-2 -149,-8 -235,17 49,446 -70,482 -491,484 -199,1 -288,17 -395,-111 -103,-122 -61,-269 -37,-428l-47 39c-116,0 -730,27 -785,-16 -62,50 -127,280 -166,360l-216 5c-112,-24 -4,-142 67,-351l-632 2c69,-41 52,-9 66,-104 -104,14 -34,-3 -108,37 -208,111 19,72 -221,60z"/>
      <g style="clip-path:url(#id2)">
       <g>
        <path id="1" class="fil1 str0" d="M3435 2838c186,-6 316,-2 492,-3 81,21 102,60 94,109l-617 8c-7,-50 1,-89 31,-114z"/>
       </g>
      </g>
      <path class="fil2" d="M2344 1005c55,107 125,146 122,332 -3,172 -88,227 -129,325 63,-15 171,-17 242,0 82,20 127,67 184,110 -3,-43 18,-189 46,-233 26,-39 -3,-5 29,-32l59 86c25,42 16,40 61,69 192,127 421,14 608,-63 277,-114 688,-165 773,143 101,-6 183,-20 229,59 108,185 68,578 19,773 28,23 145,47 119,196 -24,130 -84,94 -169,148 0,153 -14,283 -6,438l356 2c-105,-62 -29,-95 -68,-193 0,0 -13,-21 -17,-30 -12,-33 -17,-83 24,-100l60 9c53,21 -33,-91 14,8 -138,1 -54,-12 -82,50 24,52 -48,-32 22,25l91 74c-23,-687 -18,-612 332,-612 107,0 374,-13 460,3 137,27 103,231 102,378 45,-33 34,-27 146,-26 62,1 123,0 184,1l209 -6c77,7 41,2 68,31l95 -10c25,69 15,151 15,224 -1,65 -20,167 24,216l4 -27 -5 -471 66 1c44,-114 174,-150 117,-369 -43,-164 -146,-176 -275,-240l-1165 0c-75,38 -283,-85 -310,-285 -37,-278 208,-322 265,-388 35,44 34,42 176,26 -1,79 -26,122 70,136 105,17 117,-30 117,-117 42,-11 169,-81 182,-115 5,2 13,-2 17,5 4,7 12,4 17,4 91,9 96,-16 102,-16l81 27c3,1 8,3 12,4 125,57 6,153 232,108 66,-146 -14,-100 52,-162 39,-36 99,-107 131,-131 68,-53 162,17 178,-103 16,-119 -91,-132 -179,-99 -55,148 26,67 -95,186 -29,28 -47,45 -75,75 -75,81 -11,26 -109,46 -5,1 -10,2 -14,3 -96,28 10,44 -65,21l-54 -23c-129,-55 -33,-84 -159,-127 29,-73 -31,-351 -336,-358 -107,-2 -149,-8 -235,17 49,446 -70,482 -491,484 -199,1 -288,17 -395,-111 -103,-122 -61,-269 -37,-428l-47 39c-116,0 -730,27 -785,-16 -62,50 -127,280 -166,360l-216 5c-112,-24 -4,-142 67,-351l-632 2c69,-41 52,-9 66,-104 -104,14 -34,-3 -108,37 -208,111 19,72 -221,60z"/>
      <path class="fil5" d="M2499 3412c-28,97 -26,1512 4,1603l262 9c-26,-43 -18,-84 -4,-137 79,-38 240,-36 321,0 20,67 20,85 -2,140l82 -6 -16 -187c7,-54 -8,19 6,-29 30,-103 316,-58 320,-28l17 41c4,16 4,47 4,65 0,65 3,95 -16,146l82 -8c-28,-58 -25,-419 -9,-492 64,-31 266,-24 327,-8 23,104 32,416 -4,508l83 -8c-32,-64 -32,-682 6,-728 24,-24 286,-60 310,17 8,25 6,7 11,45 15,112 7,621 -13,676 20,-15 66,-12 75,-15l-7 -1084c93,-31 233,-38 331,-6 26,110 13,768 13,975 0,23 1,45 -1,68 -11,115 -13,47 -14,47l255 5c30,-109 32,-1511 2,-1607 -126,-19 -2277,-20 -2425,-2z"/>
      <g style="clip-path:url(#id3)">
       <g>
        <path id="1" class="fil1 str0" d="M3435 2838c186,-6 316,-2 492,-3 81,21 102,60 94,109l-617 8c-7,-50 1,-89 31,-114z"/>
       </g>
      </g>
      <path class="fil2" d="M2499 3412c-28,97 -26,1512 4,1603l262 9c-26,-43 -18,-84 -4,-137 79,-38 240,-36 321,0 20,67 20,85 -2,140l82 -6 -16 -187c7,-54 -8,19 6,-29 30,-103 316,-58 320,-28l17 41c4,16 4,47 4,65 0,65 3,95 -16,146l82 -8c-28,-58 -25,-419 -9,-492 64,-31 266,-24 327,-8 23,104 32,416 -4,508l83 -8c-32,-64 -32,-682 6,-728 24,-24 286,-60 310,17 8,25 6,7 11,45 15,112 7,621 -13,676 20,-15 66,-12 75,-15l-7 -1084c93,-31 233,-38 331,-6 26,110 13,768 13,975 0,23 1,45 -1,68 -11,115 -13,47 -14,47l255 5c30,-109 32,-1511 2,-1607 -126,-19 -2277,-20 -2425,-2z"/>
      <path class="fil6" d="M0 5575l0 331 7424 0 0 -333c-632,-11 -1279,2 -1913,2l-3614 0c-611,-5 -1292,-25 -1897,0z"/>
      <g style="clip-path:url(#id4)">
       <g>
        <path id="1" class="fil1 str0" d="M3435 2838c186,-6 316,-2 492,-3 81,21 102,60 94,109l-617 8c-7,-50 1,-89 31,-114z"/>
       </g>
      </g>
      <path class="fil2" d="M0 5575l0 331 7424 0 0 -333c-632,-11 -1279,2 -1913,2l-3614 0c-611,-5 -1292,-25 -1897,0z"/>
      <path class="fil7" d="M2947 2710c8,-91 -20,-85 56,-121l10 135 184 0c4,-87 -9,-201 70,-227 109,-35 131,73 130,109 -6,146 9,34 -31,83l-27 -46c-59,-125 -81,-120 -74,63 66,48 96,-20 96,49 0,60 -5,14 -29,25 -31,14 -42,4 -68,25l0 231c73,49 83,5 80,93 -195,-55 -143,-117 -145,-337l-183 -16c2,445 26,202 85,326 -54,39 -128,-1 -147,-68 -17,-60 -3,-169 -10,-235l3 555 1530 3 2 -866c-9,-406 1,-336 -466,-238 -626,132 -1029,-235 -1065,27 -7,47 -10,397 -1,430z"/>
      <g style="clip-path:url(#id5)">
       <g>
        <path id="1" class="fil1 str0" d="M3435 2838c186,-6 316,-2 492,-3 81,21 102,60 94,109l-617 8c-7,-50 1,-89 31,-114z"/>
       </g>
      </g>
      <path class="fil2" d="M2947 2710c8,-91 -20,-85 56,-121l10 135 184 0c4,-87 -9,-201 70,-227 109,-35 131,73 130,109 -6,146 9,34 -31,83l-27 -46c-59,-125 -81,-120 -74,63 66,48 96,-20 96,49 0,60 -5,14 -29,25 -31,14 -42,4 -68,25l0 231c73,49 83,5 80,93 -195,-55 -143,-117 -145,-337l-183 -16c2,445 26,202 85,326 -54,39 -128,-1 -147,-68 -17,-60 -3,-169 -10,-235l3 555 1530 3 2 -866c-9,-406 1,-336 -466,-238 -626,132 -1029,-235 -1065,27 -7,47 -10,397 -1,430z"/>
      <path class="fil4" d="M2063 2298c21,78 -6,239 -18,325 48,56 115,124 6,187 -58,33 -47,-24 -64,81 -5,32 1,22 -7,59l-34 197c-28,208 -80,1153 195,1022l167 -130c-26,-49 -28,-9 -29,-77 29,-20 135,-118 148,-147 23,-51 6,-231 8,-302 6,-216 178,-148 458,-157 5,-57 27,-408 -15,-448l-38 -21c69,-66 68,-5 57,-256 -118,-4 -178,73 -110,163 37,49 56,53 18,106 -71,-28 -92,-98 -88,-177 8,-137 57,-91 118,-149 -11,-65 -79,-517 -88,-529 -31,101 42,111 -28,177 -41,39 -107,65 -179,73 -96,10 -385,13 -477,3z"/>
      <g style="clip-path:url(#id6)">
       <g>
        <path id="1" class="fil1 str0" d="M3435 2838c186,-6 316,-2 492,-3 81,21 102,60 94,109l-617 8c-7,-50 1,-89 31,-114z"/>
       </g>
      </g>
      <path class="fil2" d="M2063 2298c21,78 -6,239 -18,325 48,56 115,124 6,187 -58,33 -47,-24 -64,81 -5,32 1,22 -7,59l-34 197c-28,208 -80,1153 195,1022l167 -130c-26,-49 -28,-9 -29,-77 29,-20 135,-118 148,-147 23,-51 6,-231 8,-302 6,-216 178,-148 458,-157 5,-57 27,-408 -15,-448l-38 -21c69,-66 68,-5 57,-256 -118,-4 -178,73 -110,163 37,49 56,53 18,106 -71,-28 -92,-98 -88,-177 8,-137 57,-91 118,-149 -11,-65 -79,-517 -88,-529 -31,101 42,111 -28,177 -41,39 -107,65 -179,73 -96,10 -385,13 -477,3z"/>
      <path class="fil8" d="M2854 1600c-136,331 44,932 33,974 11,-217 -67,-514 241,-445 586,130 561,143 1168,0 347,-81 201,312 241,452 32,-95 55,-408 43,-520 -36,-327 -134,-262 -284,-251 -52,-354 -478,-250 -703,-160 -215,87 -515,227 -708,16 -75,-81 -34,-60 -31,-66z"/>
      <g style="clip-path:url(#id7)">
       <g>
        <path id="1" class="fil1 str0" d="M3435 2838c186,-6 316,-2 492,-3 81,21 102,60 94,109l-617 8c-7,-50 1,-89 31,-114z"/>
       </g>
      </g>
      <path class="fil2" d="M2854 1600c-136,331 44,932 33,974 11,-217 -67,-514 241,-445 586,130 561,143 1168,0 347,-81 201,312 241,452 32,-95 55,-408 43,-520 -36,-327 -134,-262 -284,-251 -52,-354 -478,-250 -703,-160 -215,87 -515,227 -708,16 -75,-81 -34,-60 -31,-66z"/>
      <path class="fil9" d="M4386 973c-24,159 -66,306 37,428 107,128 196,112 395,111 421,-2 540,-38 491,-484 -69,-347 -293,-258 -253,-442 16,-69 62,-116 35,-199 -104,3 -128,22 -240,-8 -116,-31 -156,-22 -269,-3 0,180 74,177 50,262 -42,144 -75,50 -166,181 -31,46 -60,98 -80,154z"/>
      <g style="clip-path:url(#id8)">
       <g>
        <path id="1" class="fil1 str0" d="M3435 2838c186,-6 316,-2 492,-3 81,21 102,60 94,109l-617 8c-7,-50 1,-89 31,-114z"/>
       </g>
      </g>
      <path class="fil2" d="M4386 973c-24,159 -66,306 37,428 107,128 196,112 395,111 421,-2 540,-38 491,-484 -69,-347 -293,-258 -253,-442 16,-69 62,-116 35,-199 -104,3 -128,22 -240,-8 -116,-31 -156,-22 -269,-3 0,180 74,177 50,262 -42,144 -75,50 -166,181 -31,46 -60,98 -80,154z"/>
      <path class="fil10" d="M2337 1662c41,-98 126,-153 129,-325 3,-186 -67,-225 -122,-332 -89,-57 -164,-149 -364,-134 -278,20 -475,290 -404,570 17,66 47,116 85,164 28,35 32,40 66,68l74 59c30,74 -63,243 55,305 43,23 55,25 92,97 168,19 111,-25 201,-84 3,-2 8,-4 11,-6 87,-54 60,-22 67,-329 52,-21 59,-39 110,-53z"/>
      <g style="clip-path:url(#id9)">
       <g>
        <path id="1" class="fil1 str0" d="M3435 2838c186,-6 316,-2 492,-3 81,21 102,60 94,109l-617 8c-7,-50 1,-89 31,-114z"/>
       </g>
      </g>
      <path class="fil2" d="M2337 1662c41,-98 126,-153 129,-325 3,-186 -67,-225 -122,-332 -89,-57 -164,-149 -364,-134 -278,20 -475,290 -404,570 17,66 47,116 85,164 28,35 32,40 66,68l74 59c30,74 -63,243 55,305 43,23 55,25 92,97 168,19 111,-25 201,-84 3,-2 8,-4 11,-6 87,-54 60,-22 67,-329 52,-21 59,-39 110,-53z"/>
      <path class="fil11" d="M379 2184l1 533 981 8c10,-54 19,-47 49,-76l32 -35c3,-2 6,-6 8,-9 22,-18 22,-13 50,-25l-2 -522c-108,-42 -806,-20 -970,-10l-65 81c-68,69 46,22 -84,55z"/>
      <g style="clip-path:url(#id10)">
       <g>
        <path id="1" class="fil1 str0" d="M3435 2838c186,-6 316,-2 492,-3 81,21 102,60 94,109l-617 8c-7,-50 1,-89 31,-114z"/>
       </g>
      </g>
      <path class="fil2" d="M379 2184l1 533 981 8c10,-54 19,-47 49,-76l32 -35c3,-2 6,-6 8,-9 22,-18 22,-13 50,-25l-2 -522c-108,-42 -806,-20 -970,-10l-65 81c-68,69 46,22 -84,55z"/>
      <path class="fil9" d="M5308 2294l1165 0 239 -3c36,-8 15,0 37,-14 -27,-20 -76,-14 -85,-50 0,-133 17,-642 -10,-731 -405,-41 -224,12 -264,683 -1,21 0,25 -5,44 -11,42 3,11 -17,35 -49,-18 -33,11 -38,-78 -2,-31 2,-84 2,-118 1,-78 6,-161 -5,-238l-265 -8c-16,117 5,347 -9,407l-9 24c-1,2 -3,7 -6,11 -22,-8 -41,15 -40,-112l-2 -437c-78,-24 -185,-15 -268,-7 -8,124 33,478 -19,555 -50,-14 -28,4 -42,-46l-3 -285c-76,-28 -185,-14 -269,-11l-4 341c-113,1 -64,-11 -83,38z"/>
      <g style="clip-path:url(#id11)">
       <g>
        <path id="1" class="fil1 str0" d="M3435 2838c186,-6 316,-2 492,-3 81,21 102,60 94,109l-617 8c-7,-50 1,-89 31,-114z"/>
       </g>
      </g>
      <path class="fil2" d="M5308 2294l1165 0 239 -3c36,-8 15,0 37,-14 -27,-20 -76,-14 -85,-50 0,-133 17,-642 -10,-731 -405,-41 -224,12 -264,683 -1,21 0,25 -5,44 -11,42 3,11 -17,35 -49,-18 -33,11 -38,-78 -2,-31 2,-84 2,-118 1,-78 6,-161 -5,-238l-265 -8c-16,117 5,347 -9,407l-9 24c-1,2 -3,7 -6,11 -22,-8 -41,15 -40,-112l-2 -437c-78,-24 -185,-15 -268,-7 -8,124 33,478 -19,555 -50,-14 -28,4 -42,-46l-3 -285c-76,-28 -185,-14 -269,-11l-4 341c-113,1 -64,-11 -83,38z"/>
      <path class="fil9" d="M4931 3201c44,72 49,80 149,86 7,97 -9,70 23,114 34,3 115,-72 163,-97 66,-35 192,-18 278,-18 298,1 287,-10 281,-316 1,-147 35,-351 -102,-378 -86,-16 -353,-3 -460,-3 -350,0 -355,-75 -332,612z"/>
      <g style="clip-path:url(#id12)">
       <g>
        <path id="1" class="fil1 str0" d="M3435 2838c186,-6 316,-2 492,-3 81,21 102,60 94,109l-617 8c-7,-50 1,-89 31,-114z"/>
       </g>
      </g>
      <path class="fil2" d="M4931 3201c44,72 49,80 149,86 7,97 -9,70 23,114 34,3 115,-72 163,-97 66,-35 192,-18 278,-18 298,1 287,-10 281,-316 1,-147 35,-351 -102,-378 -86,-16 -353,-3 -460,-3 -350,0 -355,-75 -332,612z"/>
      <path class="fil12" d="M1286 4839l1 144c69,3 46,-15 143,10l2 -85 317 -6c35,51 3,49 33,83l123 -1 1 -124c87,-35 100,-79 155,-159 79,-112 77,29 124,-219 -104,4 -80,18 -112,-58 -60,-141 -75,-140 -147,-194 -75,-56 -33,-34 -54,-126 -189,77 -71,175 -255,180 -113,4 -113,-49 -163,-76 -60,-31 -162,21 -225,90 -115,125 -146,292 -65,429 33,56 55,91 122,112z"/>
      <g style="clip-path:url(#id13)">
       <g>
        <path id="1" class="fil1 str0" d="M3435 2838c186,-6 316,-2 492,-3 81,21 102,60 94,109l-617 8c-7,-50 1,-89 31,-114z"/>
       </g>
      </g>
      <path class="fil2" d="M1286 4839l1 144c69,3 46,-15 143,10l2 -85 317 -6c35,51 3,49 33,83l123 -1 1 -124c87,-35 100,-79 155,-159 79,-112 77,29 124,-219 -104,4 -80,18 -112,-58 -60,-141 -75,-140 -147,-194 -75,-56 -33,-34 -54,-126 -189,77 -71,175 -255,180 -113,4 -113,-49 -163,-76 -60,-31 -162,21 -225,90 -115,125 -146,292 -65,429 33,56 55,91 122,112z"/>
      <path class="fil4" d="M5310 4237l466 -2c53,-205 -37,-154 64,-222 77,54 51,109 51,216 43,-8 43,41 35,-154 -5,-115 -12,-134 96,-148 25,66 16,147 16,236 56,-18 31,-98 40,-187 99,-32 66,27 86,-33 17,-103 -22,-159 -68,-223 -150,-210 -604,-104 -963,-129 -82,-6 -104,-11 -145,-53 1,117 -26,249 37,313 228,235 87,106 107,173 38,60 51,40 95,103 27,37 66,86 83,110z"/>
      <g style="clip-path:url(#id14)">
       <g>
        <path id="1" class="fil1 str0" d="M3435 2838c186,-6 316,-2 492,-3 81,21 102,60 94,109l-617 8c-7,-50 1,-89 31,-114z"/>
       </g>
      </g>
      <path class="fil2" d="M5310 4237l466 -2c53,-205 -37,-154 64,-222 77,54 51,109 51,216 43,-8 43,41 35,-154 -5,-115 -12,-134 96,-148 25,66 16,147 16,236 56,-18 31,-98 40,-187 99,-32 66,27 86,-33 17,-103 -22,-159 -68,-223 -150,-210 -604,-104 -963,-129 -82,-6 -104,-11 -145,-53 1,117 -26,249 37,313 228,235 87,106 107,173 38,60 51,40 95,103 27,37 66,86 83,110z"/>
      <path class="fil6" d="M4801 1475c277,0 529,28 480,-371 -50,-412 -273,-393 -480,-392 -261,0 -356,153 -391,395 -44,304 96,368 391,368z"/>
      <g style="clip-path:url(#id15)">
       <g>
        <path id="1" class="fil1 str0" d="M3435 2838c186,-6 316,-2 492,-3 81,21 102,60 94,109l-617 8c-7,-50 1,-89 31,-114z"/>
       </g>
      </g>
      <path class="fil2" d="M4801 1475c277,0 529,28 480,-371 -50,-412 -273,-393 -480,-392 -261,0 -356,153 -391,395 -44,304 96,368 391,368z"/>
      <path class="fil9" d="M6432 2970c-177,32 -307,164 -352,321 -116,401 294,723 649,550 108,-53 304,-246 244,-437l-407 -4c-44,-49 -25,-151 -24,-216 0,-73 10,-155 -15,-224l-95 10z"/>
      <g style="clip-path:url(#id16)">
       <g>
        <path id="1" class="fil1 str0" d="M3435 2838c186,-6 316,-2 492,-3 81,21 102,60 94,109l-617 8c-7,-50 1,-89 31,-114z"/>
       </g>
      </g>
      <path class="fil2" d="M6432 2970c-177,32 -307,164 -352,321 -116,401 294,723 649,550 108,-53 304,-246 244,-437l-407 -4c-44,-49 -25,-151 -24,-216 0,-73 10,-155 -15,-224l-95 10z"/>
      <path class="fil6" d="M5117 3250l7 94c95,-55 116,-96 254,-96 466,1 408,65 410,-394 0,-105 21,-205 -83,-225l-524 -3c-253,0 -220,31 -217,278 3,306 -35,340 153,346z"/>
      <g style="clip-path:url(#id17)">
       <g>
        <path id="1" class="fil1 str0" d="M3435 2838c186,-6 316,-2 492,-3 81,21 102,60 94,109l-617 8c-7,-50 1,-89 31,-114z"/>
       </g>
      </g>
      <path class="fil2" d="M5117 3250l7 94c95,-55 116,-96 254,-96 466,1 408,65 410,-394 0,-105 21,-205 -83,-225l-524 -3c-253,0 -220,31 -217,278 3,306 -35,340 153,346z"/>
      <path class="fil11" d="M1096 3821c45,-17 96,-25 151,-82 19,-20 44,-46 62,-72 27,-41 19,-48 51,-80 -4,-139 13,-329 -187,-422 -172,-80 -380,-36 -488,60 -177,159 -180,669 411,596z"/>
      <g style="clip-path:url(#id18)">
       <g>
        <path id="1" class="fil1 str0" d="M3435 2838c186,-6 316,-2 492,-3 81,21 102,60 94,109l-617 8c-7,-50 1,-89 31,-114z"/>
       </g>
      </g>
      <path class="fil2" d="M1096 3821c45,-17 96,-25 151,-82 19,-20 44,-46 62,-72 27,-41 19,-48 51,-80 -4,-139 13,-329 -187,-422 -172,-80 -380,-36 -488,60 -177,159 -180,669 411,596z"/>
      <path class="fil13" d="M1914 1770c32,-51 18,-221 20,-302 -42,-19 -70,3 -105,-50 -53,-80 56,-185 131,-96 52,62 -21,67 53,84 80,-17 3,-141 169,-105 83,130 1,131 -87,167l0 304c163,0 -17,32 169,-136 430,-388 -134,-982 -543,-592 -26,25 -6,3 -24,24 -139,161 -116,406 77,572 170,147 -23,127 140,130z"/>
      <g style="clip-path:url(#id19)">
       <g>
        <path id="1" class="fil1 str0" d="M3435 2838c186,-6 316,-2 492,-3 81,21 102,60 94,109l-617 8c-7,-50 1,-89 31,-114z"/>
       </g>
      </g>
      <path class="fil2" d="M1914 1770c32,-51 18,-221 20,-302 -42,-19 -70,3 -105,-50 -53,-80 56,-185 131,-96 52,62 -21,67 53,84 80,-17 3,-141 169,-105 83,130 1,131 -87,167l0 304c163,0 -17,32 169,-136 430,-388 -134,-982 -543,-592 -26,25 -6,3 -24,24 -139,161 -116,406 77,572 170,147 -23,127 140,130z"/>
      <polygon class="fil14" points="428,2673 1320,2675 1320,2227 429,2225 "/>
      <g style="clip-path:url(#id20)">
       <g>
        <path id="1" class="fil1 str0" d="M3435 2838c186,-6 316,-2 492,-3 81,21 102,60 94,109l-617 8c-7,-50 1,-89 31,-114z"/>
       </g>
      </g>
      <polygon class="fil2" points="428,2673 1320,2675 1320,2227 429,2225 "/>
      <path class="fil13" d="M6799 3745c-31,-59 -196,-206 -251,-262 -77,-77 -39,-277 -45,-482 -268,14 -499,284 -373,588 93,226 438,377 669,156z"/>
      <g style="clip-path:url(#id21)">
       <g>
        <path id="1" class="fil1 str0" d="M3435 2838c186,-6 316,-2 492,-3 81,21 102,60 94,109l-617 8c-7,-50 1,-89 31,-114z"/>
       </g>
      </g>
      <path class="fil2" d="M6799 3745c-31,-59 -196,-206 -251,-262 -77,-77 -39,-277 -45,-482 -268,14 -499,284 -373,588 93,226 438,377 669,156z"/>
      <path class="fil13" d="M863 3181c-173,43 -275,203 -229,377 11,38 28,72 49,99 228,293 631,36 540,-263 -55,-179 -229,-245 -360,-213z"/>
      <g style="clip-path:url(#id22)">
       <g>
        <path id="1" class="fil1 str0" d="M3435 2838c186,-6 316,-2 492,-3 81,21 102,60 94,109l-617 8c-7,-50 1,-89 31,-114z"/>
       </g>
      </g>
      <path class="fil2" d="M863 3181c-173,43 -275,203 -229,377 11,38 28,72 49,99 228,293 631,36 540,-263 -55,-179 -229,-245 -360,-213z"/>
      <path class="fil7" d="M1775 2819c-78,285 -93,682 -68,985 15,189 73,121 88,268l133 -33c4,133 -16,99 46,154 2,2 6,5 9,8l97 105c26,36 30,59 48,96 147,-28 227,-125 308,-183l0 -97c-36,-25 -50,-25 -77,-62 -65,50 -187,195 -331,162 -264,-242 -143,-1050 -78,-1386 -90,-70 -76,-26 -175,-17z"/>
      <g style="clip-path:url(#id23)">
       <g>
        <path id="1" class="fil1 str0" d="M3435 2838c186,-6 316,-2 492,-3 81,21 102,60 94,109l-617 8c-7,-50 1,-89 31,-114z"/>
       </g>
      </g>
      <path class="fil2" d="M1775 2819c-78,285 -93,682 -68,985 15,189 73,121 88,268l133 -33c4,133 -16,99 46,154 2,2 6,5 9,8l97 105c26,36 30,59 48,96 147,-28 227,-125 308,-183l0 -97c-36,-25 -50,-25 -77,-62 -65,50 -187,195 -331,162 -264,-242 -143,-1050 -78,-1386 -90,-70 -76,-26 -175,-17z"/>
      <path class="fil4" d="M1096 3821c6,104 -5,172 43,254 14,25 32,56 62,84 38,35 36,6 53,38l171 -48c-20,-73 -2,-152 38,-194 51,-53 140,-48 201,-61l-16 -288c-59,-14 -86,-16 -147,-14 -65,2 -106,18 -141,-5 -32,32 -24,39 -51,80 -18,26 -43,52 -62,72 -55,57 -106,65 -151,82z"/>
      <g style="clip-path:url(#id24)">
       <g>
        <path id="1" class="fil1 str0" d="M3435 2838c186,-6 316,-2 492,-3 81,21 102,60 94,109l-617 8c-7,-50 1,-89 31,-114z"/>
       </g>
      </g>
      <path class="fil2" d="M1096 3821c6,104 -5,172 43,254 14,25 32,56 62,84 38,35 36,6 53,38l171 -48c-20,-73 -2,-152 38,-194 51,-53 140,-48 201,-61l-16 -288c-59,-14 -86,-16 -147,-14 -65,2 -106,18 -141,-5 -32,32 -24,39 -51,80 -18,26 -43,52 -62,72 -55,57 -106,65 -151,82z"/>
      <path class="fil0" d="M2203 4437c35,88 40,200 -58,266 -100,69 -42,91 -136,160 -94,70 -28,37 -62,161l510 -1c-61,-125 15,-590 -30,-734 3,11 36,-10 -31,35 -28,19 -28,17 -61,42 -51,38 -67,36 -132,71z"/>
      <g style="clip-path:url(#id25)">
       <g>
        <path id="1" class="fil1 str0" d="M3435 2838c186,-6 316,-2 492,-3 81,21 102,60 94,109l-617 8c-7,-50 1,-89 31,-114z"/>
       </g>
      </g>
      <path class="fil2" d="M2203 4437c35,88 40,200 -58,266 -100,69 -42,91 -136,160 -94,70 -28,37 -62,161l510 -1c-61,-125 15,-590 -30,-734 3,11 36,-10 -31,35 -28,19 -28,17 -61,42 -51,38 -67,36 -132,71z"/>
      <path class="fil9" d="M843 3246c-305,119 -147,574 168,470 110,-36 210,-166 153,-326 -40,-115 -177,-200 -321,-144z"/>
      <g style="clip-path:url(#id26)">
       <g>
        <path id="1" class="fil1 str0" d="M3435 2838c186,-6 316,-2 492,-3 81,21 102,60 94,109l-617 8c-7,-50 1,-89 31,-114z"/>
       </g>
      </g>
      <path class="fil2" d="M843 3246c-305,119 -147,574 168,470 110,-36 210,-166 153,-326 -40,-115 -177,-200 -321,-144z"/>
      <path class="fil12" d="M6173 4983l10 -498 -392 -6c0,148 -10,320 -2,454 5,88 166,49 384,50z"/>
      <g style="clip-path:url(#id27)">
       <g>
        <path id="1" class="fil1 str0" d="M3435 2838c186,-6 316,-2 492,-3 81,21 102,60 94,109l-617 8c-7,-50 1,-89 31,-114z"/>
       </g>
      </g>
      <path class="fil2" d="M6173 4983l10 -498 -392 -6c0,148 -10,320 -2,454 5,88 166,49 384,50z"/>
      <path class="fil9" d="M3239 1010c-71,209 -179,327 -67,351l216 -5c39,-80 104,-310 166,-360 3,-68 21,-85 48,-149l36 -104c-9,-73 -1,-15 -22,-39l-225 -8c-68,66 -102,224 -152,314z"/>
      <g style="clip-path:url(#id28)">
       <g>
        <path id="1" class="fil1 str0" d="M3435 2838c186,-6 316,-2 492,-3 81,21 102,60 94,109l-617 8c-7,-50 1,-89 31,-114z"/>
       </g>
      </g>
      <path class="fil2" d="M3239 1010c-71,209 -179,327 -67,351l216 -5c39,-80 104,-310 166,-360 3,-68 21,-85 48,-149l36 -104c-9,-73 -1,-15 -22,-39l-225 -8c-68,66 -102,224 -152,314z"/>
      <path class="fil9" d="M6570 3373l472 10c19,-266 -178,-445 -411,-480l-66 -1 5 471z"/>
      <g style="clip-path:url(#id29)">
       <g>
        <path id="1" class="fil1 str0" d="M3435 2838c186,-6 316,-2 492,-3 81,21 102,60 94,109l-617 8c-7,-50 1,-89 31,-114z"/>
       </g>
      </g>
      <path class="fil2" d="M6570 3373l472 10c19,-266 -178,-445 -411,-480l-66 -1 5 471z"/>
      <path class="fil7" d="M4987 4123c5,150 -14,64 116,228 149,188 163,325 -114,379l2 192c68,-36 414,-86 399,-368 -6,-120 -95,-249 -158,-334l-148 -164c-21,33 -64,48 -97,67z"/>
      <g style="clip-path:url(#id30)">
       <g>
        <path id="1" class="fil1 str0" d="M3435 2838c186,-6 316,-2 492,-3 81,21 102,60 94,109l-617 8c-7,-50 1,-89 31,-114z"/>
       </g>
      </g>
      <path class="fil2" d="M4987 4123c5,150 -14,64 116,228 149,188 163,325 -114,379l2 192c68,-36 414,-86 399,-368 -6,-120 -95,-249 -158,-334l-148 -164c-21,33 -64,48 -97,67z"/>
      <path class="fil15" d="M6441 2255l186 2 1 -722 -197 -5c-3,60 -17,653 10,725z"/>
      <g style="clip-path:url(#id31)">
       <g>
        <path id="1" class="fil1 str0" d="M3435 2838c186,-6 316,-2 492,-3 81,21 102,60 94,109l-617 8c-7,-50 1,-89 31,-114z"/>
       </g>
      </g>
      <path class="fil2" d="M6441 2255l186 2 1 -722 -197 -5c-3,60 -17,653 10,725z"/>
      <path class="fil6" d="M863 3281c-121,44 -171,148 -135,264 31,97 133,177 264,136 269,-84 140,-497 -129,-400z"/>
      <g style="clip-path:url(#id32)">
       <g>
        <path id="1" class="fil1 str0" d="M3435 2838c186,-6 316,-2 492,-3 81,21 102,60 94,109l-617 8c-7,-50 1,-89 31,-114z"/>
       </g>
      </g>
      <path class="fil2" d="M863 3281c-121,44 -171,148 -135,264 31,97 133,177 264,136 269,-84 140,-497 -129,-400z"/>
      <path class="fil12" d="M6602 3344l402 1c1,-225 -187,-389 -402,-406l0 405z"/>
      <g style="clip-path:url(#id33)">
       <g>
        <path id="1" class="fil1 str0" d="M3435 2838c186,-6 316,-2 492,-3 81,21 102,60 94,109l-617 8c-7,-50 1,-89 31,-114z"/>
       </g>
      </g>
      <path class="fil2" d="M6602 3344l402 1c1,-225 -187,-389 -402,-406l0 405z"/>
      <path class="fil12" d="M3158 1313c65,20 138,13 207,6 37,-114 232,-507 228,-586l-184 0c-51,68 -213,479 -251,580z"/>
      <g style="clip-path:url(#id34)">
       <g>
        <path id="1" class="fil1 str0" d="M3435 2838c186,-6 316,-2 492,-3 81,21 102,60 94,109l-617 8c-7,-50 1,-89 31,-114z"/>
       </g>
      </g>
      <path class="fil2" d="M3158 1313c65,20 138,13 207,6 37,-114 232,-507 228,-586l-184 0c-51,68 -213,479 -251,580z"/>
      <path class="fil16" d="M2947 2710l-3 89c7,66 -7,175 10,235 19,67 93,107 147,68 -59,-124 -83,119 -85,-326l183 16c2,220 -50,282 145,337 3,-88 -7,-44 -80,-93l0 -231c26,-21 37,-11 68,-25 24,-11 29,35 29,-25 0,-69 -30,-1 -96,-49 -7,-183 15,-188 74,-63l27 46c40,-49 25,63 31,-83 1,-36 -21,-144 -130,-109 -79,26 -66,140 -70,227l-184 0 -10 -135c-76,36 -48,30 -56,121z"/>
      <g style="clip-path:url(#id35)">
       <g>
        <path id="1" class="fil1 str0" d="M3435 2838c186,-6 316,-2 492,-3 81,21 102,60 94,109l-617 8c-7,-50 1,-89 31,-114z"/>
       </g>
      </g>
      <path class="fil2 str1" d="M2947 2710l-3 89c7,66 -7,175 10,235 19,67 93,107 147,68 -59,-124 -83,119 -85,-326l183 16c2,220 -50,282 145,337 3,-88 -7,-44 -80,-93l0 -231c26,-21 37,-11 68,-25 24,-11 29,35 29,-25 0,-69 -30,-1 -96,-49 -7,-183 15,-188 74,-63l27 46c40,-49 25,63 31,-83 1,-36 -21,-144 -130,-109 -79,26 -66,140 -70,227l-184 0 -10 -135c-76,36 -48,30 -56,121z"/>
      <path class="fil6" d="M3632 4057c-95,48 -126,131 -85,233 38,95 146,142 251,87 197,-102 52,-429 -166,-320z"/>
      <g style="clip-path:url(#id36)">
       <g>
        <path id="1" class="fil1 str0" d="M3435 2838c186,-6 316,-2 492,-3 81,21 102,60 94,109l-617 8c-7,-50 1,-89 31,-114z"/>
       </g>
      </g>
      <path class="fil2" d="M3632 4057c-95,48 -126,131 -85,233 38,95 146,142 251,87 197,-102 52,-429 -166,-320z"/>
      <polygon class="fil13" points="5763,2254 5958,2257 5962,1736 5765,1738 "/>
      <g style="clip-path:url(#id37)">
       <g>
        <path id="1" class="fil1 str0" d="M3435 2838c186,-6 316,-2 492,-3 81,21 102,60 94,109l-617 8c-7,-50 1,-89 31,-114z"/>
       </g>
      </g>
      <polygon class="fil2" points="5763,2254 5958,2257 5962,1736 5765,1738 "/>
      <path class="fil17" d="M5366 2887c40,50 19,14 55,50 0,205 1,184 186,175 35,-16 36,-93 40,-129 16,-140 111,-85 -20,-211 -14,-13 -29,-30 -42,-40 -42,-33 12,-12 -58,-35 -24,14 -145,140 -161,190z"/>
      <g style="clip-path:url(#id38)">
       <g>
        <path id="1" class="fil1 str0" d="M3435 2838c186,-6 316,-2 492,-3 81,21 102,60 94,109l-617 8c-7,-50 1,-89 31,-114z"/>
       </g>
      </g>
      <path class="fil2 str2" d="M5366 2887c40,50 19,14 55,50 0,205 1,184 186,175 35,-16 36,-93 40,-129 16,-140 111,-85 -20,-211 -14,-13 -29,-30 -42,-40 -42,-33 12,-12 -58,-35 -24,14 -145,140 -161,190z"/>
      <path class="fil9" d="M5109 2937c-32,30 -23,14 -51,49 25,63 95,131 156,162 81,-17 132,-90 169,-162l-57 -49c0,-139 40,-192 -96,-189 -143,2 -122,57 -121,189z"/>
      <g style="clip-path:url(#id39)">
       <g>
        <path id="1" class="fil1 str0" d="M3435 2838c186,-6 316,-2 492,-3 81,21 102,60 94,109l-617 8c-7,-50 1,-89 31,-114z"/>
       </g>
      </g>
      <path class="fil2" d="M5109 2937c-32,30 -23,14 -51,49 25,63 95,131 156,162 81,-17 132,-90 169,-162l-57 -49c0,-139 40,-192 -96,-189 -143,2 -122,57 -121,189z"/>
      <polygon class="fil12" points="6095,2251 6294,2256 6293,1859 6098,1855 "/>
      <g style="clip-path:url(#id40)">
       <g>
        <path id="1" class="fil1 str0" d="M3435 2838c186,-6 316,-2 492,-3 81,21 102,60 94,109l-617 8c-7,-50 1,-89 31,-114z"/>
       </g>
      </g>
      <polygon class="fil2" points="6095,2251 6294,2256 6293,1859 6098,1855 "/>
      <path class="fil5" d="M4701 596c64,26 208,25 291,9 38,-50 58,-103 73,-181 -219,26 -460,-109 -433,41 11,63 38,105 69,131z"/>
      <g style="clip-path:url(#id41)">
       <g>
        <path id="1" class="fil1 str0" d="M3435 2838c186,-6 316,-2 492,-3 81,21 102,60 94,109l-617 8c-7,-50 1,-89 31,-114z"/>
       </g>
      </g>
      <path class="fil2" d="M4701 596c64,26 208,25 291,9 38,-50 58,-103 73,-181 -219,26 -460,-109 -433,41 11,63 38,105 69,131z"/>
      <path class="fil9" d="M3746 1075c-103,-9 -197,-19 -222,72 -25,91 -3,181 70,208 203,74 297,-136 152,-280z"/>
      <g style="clip-path:url(#id42)">
       <g>
        <path id="1" class="fil1 str0" d="M3435 2838c186,-6 316,-2 492,-3 81,21 102,60 94,109l-617 8c-7,-50 1,-89 31,-114z"/>
       </g>
      </g>
      <path class="fil2" d="M3746 1075c-103,-9 -197,-19 -222,72 -25,91 -3,181 70,208 203,74 297,-136 152,-280z"/>
      <path class="fil9" d="M2956 756l-5 172c109,86 176,88 283,3 11,-94 17,-194 -61,-227 -100,-42 -165,6 -217,52z"/>
      <g style="clip-path:url(#id43)">
       <g>
        <path id="1" class="fil1 str0" d="M3435 2838c186,-6 316,-2 492,-3 81,21 102,60 94,109l-617 8c-7,-50 1,-89 31,-114z"/>
       </g>
      </g>
      <path class="fil2" d="M2956 756l-5 172c109,86 176,88 283,3 11,-94 17,-194 -61,-227 -100,-42 -165,6 -217,52z"/>
      <path class="fil9" d="M4828 1126l-1 90c-72,-5 -11,-5 -56,-17 -14,-4 -23,-25 -69,5 31,81 54,31 118,95l31 37 20 -31c40,-45 48,-29 111,-78 13,-124 -23,-131 -113,-165l1 -98c67,17 50,33 97,9 -10,-76 26,-17 -75,-73l-32 -22c-2,-2 -6,-6 -9,-9 -4,2 -9,2 -11,8l-54 32c-3,2 -8,3 -12,5 -39,20 -53,16 -60,77 -13,106 50,101 114,135z"/>
      <g style="clip-path:url(#id44)">
       <g>
        <path id="1" class="fil1 str0" d="M3435 2838c186,-6 316,-2 492,-3 81,21 102,60 94,109l-617 8c-7,-50 1,-89 31,-114z"/>
       </g>
      </g>
      <path class="fil2" d="M4828 1126l-1 90c-72,-5 -11,-5 -56,-17 -14,-4 -23,-25 -69,5 31,81 54,31 118,95l31 37 20 -31c40,-45 48,-29 111,-78 13,-124 -23,-131 -113,-165l1 -98c67,17 50,33 97,9 -10,-76 26,-17 -75,-73l-32 -22c-2,-2 -6,-6 -9,-9 -4,2 -9,2 -11,8l-54 32c-3,2 -8,3 -12,5 -39,20 -53,16 -60,77 -13,106 50,101 114,135z"/>
      <path class="fil18" d="M1559 3964c-180,97 -62,317 100,252 180,-71 46,-331 -100,-252z"/>
      <g style="clip-path:url(#id45)">
       <g>
        <path id="1" class="fil1 str0" d="M3435 2838c186,-6 316,-2 492,-3 81,21 102,60 94,109l-617 8c-7,-50 1,-89 31,-114z"/>
       </g>
      </g>
      <path class="fil2" d="M1559 3964c-180,97 -62,317 100,252 180,-71 46,-331 -100,-252z"/>
      <polygon class="fil19" points="5433,2251 5626,2258 5631,2194 5630,2013 5626,1951 5434,1953 "/>
      <g style="clip-path:url(#id46)">
       <g>
        <path id="1" class="fil1 str0" d="M3435 2838c186,-6 316,-2 492,-3 81,21 102,60 94,109l-617 8c-7,-50 1,-89 31,-114z"/>
       </g>
      </g>
      <polygon class="fil2" points="5433,2251 5626,2258 5631,2194 5630,2013 5626,1951 5434,1953 "/>
      <path class="fil15" d="M6831 3708c72,-54 106,-146 117,-264l-151 -2 -16 1 -199 -1c35,74 186,203 249,266z"/>
      <g style="clip-path:url(#id47)">
       <g>
        <path id="1" class="fil1 str0" d="M3435 2838c186,-6 316,-2 492,-3 81,21 102,60 94,109l-617 8c-7,-50 1,-89 31,-114z"/>
       </g>
      </g>
      <path class="fil2" d="M6831 3708c72,-54 106,-146 117,-264l-151 -2 -16 1 -199 -1c35,74 186,203 249,266z"/>
      <path class="fil7" d="M1749 2777l82 -13c31,-101 31,-86 120,-124 -44,-248 -426,-80 -202,137z"/>
      <g style="clip-path:url(#id48)">
       <g>
        <path id="1" class="fil1 str0" d="M3435 2838c186,-6 316,-2 492,-3 81,21 102,60 94,109l-617 8c-7,-50 1,-89 31,-114z"/>
       </g>
      </g>
      <path class="fil2" d="M1749 2777l82 -13c31,-101 31,-86 120,-124 -44,-248 -426,-80 -202,137z"/>
      <path class="fil5" d="M1849 1922l146 4c41,12 14,0 39,21l-87 23c-53,4 -57,-6 -98,10 67,44 238,26 329,16l0 -99c-90,-8 -137,17 -184,-33 73,-43 66,2 177,-28 4,-1 9,-3 13,-5 -4,-2 -10,-9 -13,-5l-324 -9 2 105z"/>
      <g style="clip-path:url(#id49)">
       <g>
        <path id="1" class="fil1 str0" d="M3435 2838c186,-6 316,-2 492,-3 81,21 102,60 94,109l-617 8c-7,-50 1,-89 31,-114z"/>
       </g>
      </g>
      <path class="fil2" d="M1849 1922l146 4c41,12 14,0 39,21l-87 23c-53,4 -57,-6 -98,10 67,44 238,26 329,16l0 -99c-90,-8 -137,17 -184,-33 73,-43 66,2 177,-28 4,-1 9,-3 13,-5 -4,-2 -10,-9 -13,-5l-324 -9 2 105z"/>
      <path class="fil12" d="M3003 922c142,106 266,-60 180,-163 -45,-54 -270,-64 -180,163z"/>
      <g style="clip-path:url(#id50)">
       <g>
        <path id="1" class="fil1 str0" d="M3435 2838c186,-6 316,-2 492,-3 81,21 102,60 94,109l-617 8c-7,-50 1,-89 31,-114z"/>
       </g>
      </g>
      <path class="fil2" d="M3003 922c142,106 266,-60 180,-163 -45,-54 -270,-64 -180,163z"/>
      <path class="fil12" d="M3742 1301c60,-51 31,-128 10,-182 -343,-77 -191,327 -10,182z"/>
      <g style="clip-path:url(#id51)">
       <g>
        <path id="1" class="fil1 str0" d="M3435 2838c186,-6 316,-2 492,-3 81,21 102,60 94,109l-617 8c-7,-50 1,-89 31,-114z"/>
       </g>
      </g>
      <path class="fil2" d="M3742 1301c60,-51 31,-128 10,-182 -343,-77 -191,327 -10,182z"/>
      <path class="fil12" d="M5157 2970c-4,3 -10,3 -13,10l-43 15 122 112 123 -105 -63 -25 4 -188 -127 11 -3 170z"/>
      <g style="clip-path:url(#id52)">
       <g>
        <path id="1" class="fil1 str0" d="M3435 2838c186,-6 316,-2 492,-3 81,21 102,60 94,109l-617 8c-7,-50 1,-89 31,-114z"/>
       </g>
      </g>
      <path class="fil2" d="M5157 2970c-4,3 -10,3 -13,10l-43 15 122 112 123 -105 -63 -25 4 -188 -127 11 -3 170z"/>
      <path class="fil0" d="M4988 4405l0 279c106,-47 90,-28 169,-97 -8,-107 -106,-223 -169,-298l0 116z"/>
      <g style="clip-path:url(#id53)">
       <g>
        <path id="1" class="fil1 str0" d="M3435 2838c186,-6 316,-2 492,-3 81,21 102,60 94,109l-617 8c-7,-50 1,-89 31,-114z"/>
       </g>
      </g>
      <path class="fil2" d="M4988 4405l0 279c106,-47 90,-28 169,-97 -8,-107 -106,-223 -169,-298l0 116z"/>
      <path class="fil9" d="M847 3401c8,84 32,47 67,113 -4,2 -11,0 -13,5 -21,54 8,-32 -61,35 54,27 45,8 84,54 179,-151 37,-92 17,-193l27 -10c1,-1 7,-2 8,-2 8,-3 9,-1 24,-15 -21,-17 -47,-30 -75,-50 -49,36 -43,12 -78,63z"/>
      <g style="clip-path:url(#id54)">
       <g>
        <path id="1" class="fil1 str0" d="M3435 2838c186,-6 316,-2 492,-3 81,21 102,60 94,109l-617 8c-7,-50 1,-89 31,-114z"/>
       </g>
      </g>
      <path class="fil2" d="M847 3401c8,84 32,47 67,113 -4,2 -11,0 -13,5 -21,54 8,-32 -61,35 54,27 45,8 84,54 179,-151 37,-92 17,-193l27 -10c1,-1 7,-2 8,-2 8,-3 9,-1 24,-15 -21,-17 -47,-30 -75,-50 -49,36 -43,12 -78,63z"/>
      <path class="fil7" d="M4539 2864c61,-16 90,-37 119,-76 15,-86 -33,-189 -121,-149l2 225z"/>
      <g style="clip-path:url(#id55)">
       <g>
        <path id="1" class="fil1 str0" d="M3435 2838c186,-6 316,-2 492,-3 81,21 102,60 94,109l-617 8c-7,-50 1,-89 31,-114z"/>
       </g>
      </g>
      <path class="fil2" d="M4539 2864c61,-16 90,-37 119,-76 15,-86 -33,-189 -121,-149l2 225z"/>
     </g>
     <path class="fil20" d="M863 2620l0 -34c-19,-2 -35,-5 -47,-11 -12,-5 -22,-14 -31,-26 -9,-12 -14,-27 -15,-45l38 -6c3,18 9,31 16,40 11,12 24,19 39,20l0 -106c-16,-4 -32,-10 -48,-18 -13,-6 -22,-14 -29,-25 -7,-10 -10,-22 -10,-36 0,-24 10,-44 29,-58 13,-10 33,-17 58,-19l0 -16 23 0 0 16c23,2 41,8 54,18 16,12 27,29 30,50l-40 6c-2,-14 -7,-24 -14,-31 -7,-7 -17,-12 -30,-14l0 97c20,4 33,8 39,10 12,5 22,10 29,17 8,7 14,15 18,24 4,9 6,19 6,29 0,24 -9,43 -26,59 -17,16 -39,24 -66,25l0 34 -23 0zm0 -296c-15,2 -26,7 -35,16 -9,9 -13,19 -13,30 0,12 4,22 11,29 7,8 20,14 37,18l0 -93zm23 234c15,-2 28,-7 38,-17 9,-10 14,-22 14,-36 0,-13 -3,-22 -10,-30 -7,-7 -21,-13 -42,-18l0 101z"/>
     <ellipse class="fil7 str3" transform="matrix(6.12022 -0.682738 0.604305 3.81633 1978.37 2731.55)" rx="14" ry="17"/>
     <path class="fil21" d="M2046 2339c-3,-50 -30,-71 -95,-47l-46 226 60 84 56 21 25 -284z"/>
     <g>
      <line class="fil2 str4" x1="1342" y1="937" x2="1499" y2= "1028" />
      <line class="fil2 str4" x1="1621" y1="662" x2="1727" y2= "845" />
      <line class="fil2 str4" x1="1995" y1="572" x2="1995" y2= "761" />
      <line class="fil2 str4" x1="2382" y1="666" x2="2286" y2= "831" />
      <line class="fil2 str4" x1="2648" y1="950" x2="2491" y2= "1041" />
     </g>
     <path class="fil7 str5" d="M2724 2735c1,-84 64,-128 170,-110l9 277c-94,13 -180,-19 -179,-167z"/>
     <path class="fil22 str6" d="M1616 4046c28,0 51,24 51,54 0,30 -23,54 -51,54 -29,0 -52,-24 -52,-54 0,-30 23,-54 52,-54z"/>
     <ellipse class="fil3 str7" cx="1858" cy="4390" rx="45" ry="48"/>
    </g>
    <polygon class="fil13" points="4385,4029 4626,4030 4627,3959 4388,3960 "/>
    <g style="clip-path:url(#id56)">
     <g>
      <path id="1" class="fil1 str0" d="M3435 2838c186,-6 316,-2 492,-3 81,21 102,60 94,109l-617 8c-7,-50 1,-89 31,-114z"/>
     </g>
    </g>
    <polygon class="fil2" points="4385,4029 4626,4030 4627,3959 4388,3960 "/>
    <polygon class="fil13" points="4385,4118 4626,4119 4627,4048 4388,4049 "/>
    <g style="clip-path:url(#id57)">
     <g>
      <path id="1" class="fil1 str0" d="M3435 2927c186,-5 316,-2 492,-3 81,21 102,61 94,109l-617 9c-7,-50 1,-90 31,-115z"/>
     </g>
    </g>
    <polygon class="fil2" points="4385,4118 4626,4119 4627,4048 4388,4049 "/>
    <polygon class="fil13" points="4385,4207 4626,4208 4627,4138 4388,4138 "/>
    <g style="clip-path:url(#id58)">
     <g>
      <path id="1" class="fil1 str0" d="M3435 3016c186,-5 316,-2 492,-3 81,21 102,61 94,110l-617 8c-7,-50 1,-90 31,-115z"/>
     </g>
    </g>
    <polygon class="fil2" points="4385,4207 4626,4208 4627,4138 4388,4138 "/>
    <polygon class="fil13" points="4385,4296 4626,4298 4627,4227 4388,4227 "/>
    <g style="clip-path:url(#id59)">
     <g>
      <path id="1" class="fil1 str0" d="M3435 3105c186,-5 316,-1 492,-2 81,20 102,60 94,109l-617 8c-7,-50 1,-89 31,-115z"/>
     </g>
    </g>
    <polygon class="fil2" points="4385,4296 4626,4298 4627,4227 4388,4227 "/>
    <polygon class="fil13" points="4385,4385 4626,4387 4627,4316 4388,4316 "/>
    <g style="clip-path:url(#id60)">
     <g>
      <path id="1" class="fil1 str0" d="M3435 3195c186,-6 316,-2 492,-3 81,20 102,60 94,109l-617 8c-7,-50 1,-89 31,-114z"/>
     </g>
    </g>
    <polygon class="fil2" points="4385,4385 4626,4387 4627,4316 4388,4316 "/>
    <polygon class="fil13" points="4385,4475 4626,4476 4627,4405 4388,4406 "/>
    <g style="clip-path:url(#id61)">
     <g>
      <path id="1" class="fil1 str0" d="M3435 3284c186,-6 316,-2 492,-3 81,21 102,60 94,109l-617 8c-7,-49 1,-89 31,-114z"/>
     </g>
    </g>
    <polygon class="fil2" points="4385,4475 4626,4476 4627,4405 4388,4406 "/>
    <polygon class="fil13" points="4385,4564 4626,4565 4627,4494 4388,4495 "/>
    <g style="clip-path:url(#id62)">
     <g>
      <path id="1" class="fil1 str0" d="M3435 3373c186,-5 316,-2 492,-3 81,21 102,61 94,109l-617 9c-7,-50 1,-90 31,-115z"/>
     </g>
    </g>
    <polygon class="fil2" points="4385,4564 4626,4565 4627,4494 4388,4495 "/>
    <polygon class="fil13" points="4385,4653 4626,4655 4627,4584 4388,4584 "/>
    <g style="clip-path:url(#id63)">
     <g>
      <path id="1" class="fil1 str0" d="M3435 3462c186,-5 316,-2 492,-3 81,21 102,61 94,110l-617 8c-7,-50 1,-90 31,-115z"/>
     </g>
    </g>
    <polygon class="fil2" points="4385,4653 4626,4655 4627,4584 4388,4584 "/>
    <polygon class="fil13" points="4385,4742 4626,4744 4627,4673 4388,4673 "/>
    <g style="clip-path:url(#id64)">
     <g>
      <path id="1" class="fil1 str0" d="M3435 3552c186,-6 316,-2 492,-3 81,20 102,60 94,109l-617 8c-7,-50 1,-89 31,-114z"/>
     </g>
    </g>
    <polygon class="fil2" points="4385,4742 4626,4744 4627,4673 4388,4673 "/>
    <polygon class="fil13" points="4385,4832 4626,4833 4627,4762 4388,4762 "/>
    <g style="clip-path:url(#id65)">
     <g>
      <path id="1" class="fil1 str0" d="M3435 3641c186,-6 316,-2 492,-3 81,20 102,60 94,109l-617 8c-7,-50 1,-89 31,-114z"/>
     </g>
    </g>
    <polygon class="fil2" points="4385,4832 4626,4833 4627,4762 4388,4762 "/>
    <polygon class="fil13" points="4385,4921 4626,4922 4627,4851 4388,4852 "/>
    <g style="clip-path:url(#id66)">
     <g>
      <path id="1" class="fil1 str0" d="M3435 3730c186,-5 316,-2 492,-3 81,21 102,61 94,109l-617 8c-7,-49 1,-89 31,-114z"/>
     </g>
    </g>
    <polygon class="fil2" points="4385,4921 4626,4922 4627,4851 4388,4852 "/>
    <polygon class="fil13" points="4385,5010 4626,5011 4627,4941 4388,4941 "/>
    <g style="clip-path:url(#id67)">
     <g>
      <path id="1" class="fil1 str0" d="M3435 3819c186,-5 316,-2 492,-3 81,21 102,61 94,110l-617 8c-7,-50 1,-90 31,-115z"/>
     </g>
    </g>
    <polygon class="fil2" points="4385,5010 4626,5011 4627,4941 4388,4941 "/>
    <polygon class="fil13" points="3989,4389 4224,4389 4233,4320 3992,4320 "/>
    <g style="clip-path:url(#id68)">
     <g>
      <path id="1" class="fil1 str0" d="M3435 2838c186,-6 316,-2 492,-3 81,21 102,60 94,109l-617 8c-7,-50 1,-89 31,-114z"/>
     </g>
    </g>
    <polygon class="fil2" points="3989,4389 4224,4389 4233,4320 3992,4320 "/>
    <polygon class="fil13" points="3989,4478 4224,4478 4233,4409 3992,4409 "/>
    <g style="clip-path:url(#id69)">
     <g>
      <path id="1" class="fil1 str0" d="M3435 2927c186,-5 316,-2 492,-3 81,21 102,61 94,109l-617 9c-7,-50 1,-90 31,-115z"/>
     </g>
    </g>
    <polygon class="fil2" points="3989,4478 4224,4478 4233,4409 3992,4409 "/>
    <polygon class="fil13" points="3989,4567 4224,4567 4233,4498 3992,4498 "/>
    <g style="clip-path:url(#id70)">
     <g>
      <path id="1" class="fil1 str0" d="M3435 3016c186,-5 316,-2 492,-3 81,21 102,61 94,110l-617 8c-7,-50 1,-90 31,-115z"/>
     </g>
    </g>
    <polygon class="fil2" points="3989,4567 4224,4567 4233,4498 3992,4498 "/>
    <polygon class="fil13" points="3989,4656 4224,4656 4233,4588 3992,4587 "/>
    <g style="clip-path:url(#id71)">
     <g>
      <path id="1" class="fil1 str0" d="M3435 3105c186,-5 316,-1 492,-2 81,20 102,60 94,109l-617 8c-7,-50 1,-89 31,-115z"/>
     </g>
    </g>
    <polygon class="fil2" points="3989,4656 4224,4656 4233,4588 3992,4587 "/>
    <polygon class="fil13" points="3989,4746 4224,4746 4233,4677 3992,4677 "/>
    <g style="clip-path:url(#id72)">
     <g>
      <path id="1" class="fil1 str0" d="M3435 3195c186,-6 316,-2 492,-3 81,20 102,60 94,109l-617 8c-7,-50 1,-89 31,-114z"/>
     </g>
    </g>
    <polygon class="fil2" points="3989,4746 4224,4746 4233,4677 3992,4677 "/>
    <polygon class="fil13" points="3989,4835 4224,4835 4233,4766 3992,4766 "/>
    <g style="clip-path:url(#id73)">
     <g>
      <path id="1" class="fil1 str0" d="M3435 3284c186,-6 316,-2 492,-3 81,21 102,60 94,109l-617 8c-7,-49 1,-89 31,-114z"/>
     </g>
    </g>
    <polygon class="fil2" points="3989,4835 4224,4835 4233,4766 3992,4766 "/>
    <polygon class="fil13" points="3989,4924 4224,4924 4233,4855 3992,4855 "/>
    <g style="clip-path:url(#id74)">
     <g>
      <path id="1" class="fil1 str0" d="M3435 3373c186,-5 316,-2 492,-3 81,21 102,61 94,109l-617 9c-7,-50 1,-90 31,-115z"/>
     </g>
    </g>
    <polygon class="fil2" points="3989,4924 4224,4924 4233,4855 3992,4855 "/>
    <polygon class="fil13" points="3989,5013 4224,5013 4233,4945 3992,4944 "/>
    <g style="clip-path:url(#id75)">
     <g>
      <path id="1" class="fil1 str0" d="M3435 3462c186,-5 316,-2 492,-3 81,21 102,61 94,110l-617 8c-7,-50 1,-90 31,-115z"/>
     </g>
    </g>
    <polygon class="fil2" points="3989,5013 4224,5013 4233,4945 3992,4944 "/>
    <polygon class="fil13" points="3600,4632 3834,4632 3844,4562 3602,4563 "/>
    <g style="clip-path:url(#id76)">
     <g>
      <path id="1" class="fil1 str0" d="M3442 2602c186,-5 316,-1 492,-3 82,21 102,61 95,110l-617 8c-7,-50 1,-89 30,-115z"/>
     </g>
    </g>
    <polygon class="fil2" points="3600,4632 3834,4632 3844,4562 3602,4563 "/>
    <polygon class="fil13" points="3600,4721 3834,4721 3844,4651 3602,4652 "/>
    <g style="clip-path:url(#id77)">
     <g>
      <path id="1" class="fil1 str0" d="M3442 2692c186,-6 316,-2 492,-3 82,20 102,60 95,109l-617 8c-7,-50 1,-89 30,-114z"/>
     </g>
    </g>
    <polygon class="fil2" points="3600,4721 3834,4721 3844,4651 3602,4652 "/>
    <polygon class="fil13" points="3600,4810 3834,4810 3844,4740 3602,4741 "/>
    <g style="clip-path:url(#id78)">
     <g>
      <path id="1" class="fil1 str0" d="M3442 2781c186,-6 316,-2 492,-3 82,20 102,60 95,109l-617 8c-7,-50 1,-89 30,-114z"/>
     </g>
    </g>
    <polygon class="fil2" points="3600,4810 3834,4810 3844,4740 3602,4741 "/>
    <polygon class="fil13" points="3600,4899 3834,4899 3844,4830 3602,4831 "/>
    <g style="clip-path:url(#id79)">
     <g>
      <path id="1" class="fil1 str0" d="M3442 2870c186,-5 316,-2 492,-3 82,21 102,61 95,109l-617 8c-7,-49 1,-89 30,-114z"/>
     </g>
    </g>
    <polygon class="fil2" points="3600,4899 3834,4899 3844,4830 3602,4831 "/>
    <polygon class="fil13" points="3600,4989 3834,4989 3844,4919 3602,4920 "/>
    <g style="clip-path:url(#id80)">
     <g>
      <path id="1" class="fil1 str0" d="M3442 2959c186,-5 316,-2 492,-3 82,21 102,61 95,110l-617 8c-7,-50 1,-90 30,-115z"/>
     </g>
    </g>
    <polygon class="fil2" points="3600,4989 3834,4989 3844,4919 3602,4920 "/>
    <polygon class="fil13" points="3196,4867 3428,4867 3439,4799 3199,4798 "/>
    <g style="clip-path:url(#id81)">
     <g>
      <path id="1" class="fil1 str0" d="M3435 2838c186,-6 316,-2 492,-3 81,21 102,60 94,109l-617 8c-7,-50 1,-89 31,-114z"/>
     </g>
    </g>
    <polygon class="fil2" points="3196,4867 3428,4867 3439,4799 3199,4798 "/>
    <polygon class="fil13" points="3196,4956 3428,4956 3439,4888 3199,4888 "/>
    <g style="clip-path:url(#id82)">
     <g>
      <path id="1" class="fil1 str0" d="M3435 2927c186,-5 316,-2 492,-3 81,21 102,61 94,109l-617 9c-7,-50 1,-90 31,-115z"/>
     </g>
    </g>
    <polygon class="fil2" points="3196,4956 3428,4956 3439,4888 3199,4888 "/>
    <polygon class="fil13" points="3196,5046 3428,5046 3439,4977 3199,4977 "/>
    <g style="clip-path:url(#id83)">
     <g>
      <path id="1" class="fil1 str0" d="M3435 3016c186,-5 316,-2 492,-3 81,21 102,61 94,110l-617 8c-7,-50 1,-90 31,-115z"/>
     </g>
    </g>
    <polygon class="fil2" points="3196,5046 3428,5046 3439,4977 3199,4977 "/>
    <polygon class="fil13" points="2785,4999 3061,4999 3074,4918 2788,4917 "/>
    <g style="clip-path:url(#id84)">
     <g>
      <path id="1" class="fil1 str0" d="M3069 2582c222,-7 377,-3 586,-4 98,25 122,72 113,130l-735 10c-8,-59 1,-107 36,-136z"/>
     </g>
    </g>
    <polygon class="fil2" points="2785,4999 3061,4999 3074,4918 2788,4917 "/>
   </g>
   <rect class="fil7 str3" x="2946" y="2557" width="243" height="596"/>
   <rect class="fil7 str3" x="3189" y="2415" width="213" height="750"/>
   <g>
    <path class="fil2 str5" d="M3217 2628c-27,-119 50,-159 77,-161 27,-2 93,31 86,161"/>
    <path class="fil2 str5" d="M4040 2638c-27,-119 50,-159 78,-161 27,-2 92,31 86,161"/>
   </g>
   <path class="fil12" d="M3435 2838c-50,30 -30,137 -16,191 51,199 398,308 553,67 30,-47 115,-237 -45,-261l-492 3z"/>
   <g style="clip-path:url(#id85)">
    <g>
     <path id="1" class="fil1 str0" d="M3435 2838c186,-6 316,-2 492,-3 81,21 102,60 94,109l-617 8c-7,-50 1,-89 31,-114z"/>
    </g>
   </g>
   <path class="fil2 str5" d="M3435 2838c-50,30 -30,137 -16,191 51,199 398,308 553,67 30,-47 115,-237 -45,-261l-492 3z"/>
  </g>
 </g>
</svg>
