<?xml version="1.0" encoding="UTF-8"?>
<!DOCTYPE svg PUBLIC "-//W3C//DTD SVG 1.1//EN" "http://www.w3.org/Graphics/SVG/1.1/DTD/svg11.dtd">
<!-- Creator: CorelDRAW X7 -->
<svg xmlns="http://www.w3.org/2000/svg" xml:space="preserve" width="5in" height="3.99046in" version="1.1" style="shape-rendering:geometricPrecision; text-rendering:geometricPrecision; image-rendering:optimizeQuality; fill-rule:evenodd; clip-rule:evenodd"
viewBox="0 0 109193 87146"
 xmlns:xlink="http://www.w3.org/1999/xlink">
 <defs>
  <style type="text/css">
   <![CDATA[
    .str0 {stroke:#F5E5CC;stroke-width:151.666}
    .fil11 {fill:#01B5E1}
    .fil1 {fill:#1A4C83}
    .fil6 {fill:#336676}
    .fil13 {fill:#49739A}
    .fil5 {fill:#948675}
    .fil9 {fill:#9DD159}
    .fil2 {fill:#C1E6FA}
    .fil17 {fill:#D5C889}
    .fil10 {fill:#D69085}
    .fil0 {fill:#D8EFFB}
    .fil15 {fill:#E6E7E7}
    .fil14 {fill:#ED8169}
    .fil7 {fill:#ED9281}
    .fil16 {fill:#F5E5CC}
    .fil3 {fill:#F9E6CD}
    .fil8 {fill:#FBD887}
    .fil4 {fill:#FBFCFB}
    .fil12 {fill:#FFF9E5}
    .fil18 {fill:#373435;fill-rule:nonzero}
   ]]>
  </style>
 </defs>
 <g id="Layer_x0020_1">
  <metadata id="CorelCorpID_0Corel-Layer"/>
  <g id="_1228245200">
   <polygon class="fil0" points="0,81894 109193,81894 109193,0 0,0 "/>
   <path class="fil1" d="M42378 15112c-1086,3296 -735,8481 -181,12063l638 3763c-184,146 -490,212 -741,376 -1236,806 -1330,2625 -97,3561 558,423 937,361 1647,432 2,2860 649,4480 2084,6463 159,220 333,375 511,581 164,189 310,346 494,527l1130 983c1799,1196 996,630 2693,1527l0 2511c-242,131 -172,-38 -402,201l-779 1205c-908,1310 -420,1028 -1328,1262 -2007,517 -6490,1416 -7982,2455 -1463,1019 -1636,1733 -2341,2805 -97,-933 140,-6297 45,-6752 -84,-397 -412,-270 -811,-305l-5 -2257c2104,-613 1373,-2631 147,-2799 27,-974 6,-1972 6,-2949 0,-860 175,-2011 -348,-2544 -625,-636 -1640,-328 -1907,415 -136,378 -88,2291 -77,2816 -686,9 -731,-175 -1568,52 -1388,377 -2554,741 -2427,2828 309,1043 336,1476 1102,2111l30 2342c-291,-11 -424,-40 -658,72l-69 44 -48 13301c-285,-62 42,-62 -359,-130 -130,943 1004,1132 801,1675 540,761 500,1091 679,1747l44 120c341,166 919,70 1320,243 57,435 -174,1330 -261,1809 -170,930 -277,707 -1168,791 -417,739 -428,1518 -1704,2508 -1065,827 -911,196 -850,2397 -442,-11 -680,-231 -1102,-231 -398,-1 -680,213 -1107,241l-2 -1317 -4898 37 1 1295c-379,-58 -785,-266 -1128,-257 -381,10 -650,216 -1075,246l-27 -2037c-830,-651 -1551,-1284 -1973,-2313 -436,-1063 -532,-2449 -238,-3688 509,-2153 2416,-3667 4769,-3749 493,440 747,857 1479,1072 1382,407 2763,-264 3312,-1529 203,-468 107,-391 566,-671 277,-169 616,-304 992,-278 -1,423 -102,1149 48,1467l1071 593c142,-289 166,-260 207,-538 -144,-58 -630,-329 -780,-454l11 -1696c-892,32 -1098,101 -1811,390 -164,-254 -64,-541 -384,-1170 -170,-335 -335,-560 -643,-820 -1283,-1081 -3239,-793 -4119,662 -499,823 -422,1436 -242,2385 -509,176 -1135,185 -1704,402 -762,291 -957,567 -1394,755 -148,257 -532,543 -735,764 -330,359 -425,610 -679,910 -368,-6 -708,-171 -1021,-350 -337,-193 -509,-425 -733,-443 -798,-65 -64,1594 566,2208 446,433 585,247 526,917 -43,494 -35,1093 23,1586 316,2695 2288,3773 2350,3952 3,741 -114,1491 134,2126 -268,-4 -270,-37 -479,58l-33 545c1469,19 12399,-128 12785,47 411,187 964,914 2554,655 434,-71 815,-246 1130,-479 480,-355 673,-236 1343,-235 1255,2 5514,88 6420,-88l24 -487 282 5 -1 582c5912,83 12187,-14 18171,-12l4586 1c470,1 1041,-93 1438,-59 2004,171 9517,57 12102,58l10628 0c501,1 1041,99 1277,-242 -81,-468 -510,-333 -985,-331 -1162,5 -3444,55 -4390,-14 475,-672 367,-230 367,-1766 -1,-1036 58,-6200 -46,-6491 -214,-595 -981,-468 -1682,-468l-4372 -2c-993,5 -886,345 -1024,1138 -649,219 -1222,231 -1891,939 -1471,1553 -904,4005 781,4840 1494,739 967,-331 1151,1198 42,345 201,417 353,627l-6995 -1c-16,-1625 -303,-3788 -284,-5131 4,-292 -25,-469 -148,-670l-500 -518c39,538 90,1171 86,1705 -4,463 66,390 101,658 27,206 -19,530 -3,795 63,1047 109,2106 192,3155l-4351 -13c529,-840 134,-1288 237,-2207 47,-415 47,-876 1,-1292 -38,-344 23,-668 23,-1101l-7 -10555c5,-1362 -48,-1143 -2641,-1143 -990,0 -2052,-188 -2209,420 -72,278 37,3267 -1,3569l-28 2247c-1,325 64,910 57,1078 -28,736 -84,2716 -6,3414 15,136 -51,744 -51,1044l30 2370c34,353 -29,729 -30,1124 -3,993 29,597 248,1048l-1459 -1c201,-390 254,-197 263,-752l-15 -2700c-94,-1022 42,-2177 13,-3277l-39 -2425c118,-1355 148,-1883 -772,-1892l-3565 16c-606,104 -516,762 -512,1322l47 2468c-4,235 -46,508 -47,804 0,320 41,631 47,884 6,226 -47,502 -48,789l2 3278c-40,1026 -55,959 277,1483l-1485 -8c178,-278 232,-174 258,-602l-37 -1500c19,-248 38,-419 37,-682 0,-271 -20,-518 -29,-773 -10,-285 85,-272 286,-423 411,-309 210,-650 151,-1149 -144,-1223 -1672,-13639 -1621,-13864 47,-205 1350,-1445 1503,-1538 419,241 774,723 1144,1096 1315,1324 1368,1403 1532,-24 77,-664 325,-2976 454,-3347 426,-25 2674,632 3313,787 553,134 1061,275 1615,411 313,77 473,142 826,168 582,44 366,196 797,222 -62,-96 -148,-190 -206,-285 -108,-177 -76,-197 -158,-348 -218,-182 -5852,-1435 -6060,-1591 -185,-139 -1326,-2152 -1720,-2407 -48,-30 -75,-43 -147,-87 -12,-8 -44,-8 -53,-35 -155,-458 -56,-1872 -59,-2455 1088,-428 1904,-891 2768,-1539 2889,-2165 4145,-4768 4263,-8557 819,-94 1055,1 1657,-453 1437,-1085 1032,-3377 -883,-3860 382,-2924 1384,-9310 -195,-12076 -940,-1648 -2062,-1251 -3065,-1144 -285,-464 -259,-885 -895,-1670 -672,-828 -1196,-907 -1395,-1201 -684,68 -1094,-945 -5219,-82 -3772,788 -8662,4355 -11562,1480 -259,-258 -447,-507 -664,-860 -108,-176 -724,-1811 -1073,-333z"/>
   <path class="fil2" d="M60896 14907c199,294 723,373 1395,1201 636,785 610,1206 895,1670 1003,-107 2125,-504 3065,1144 1579,2766 577,9152 195,12076 1915,483 2320,2775 883,3860 -602,454 -838,359 -1657,453 -118,3789 -1374,6392 -4263,8557 -864,648 -1680,1111 -2768,1539 3,583 -96,1997 59,2455 9,27 41,27 53,35 72,44 99,57 147,87 394,255 1535,2268 1720,2407 208,156 5842,1409 6060,1591 82,151 50,171 158,348 58,95 144,189 206,285 165,313 676,200 1307,549 476,264 303,91 782,444 313,230 371,166 724,509l610 618c13,16 52,63 65,79l279 446c9,14 22,31 32,45 22,32 121,162 122,165 368,539 794,1591 812,2257 25,978 148,1484 214,2271 31,367 1,845 1,1224 1,465 76,673 74,1163 -3,686 148,1185 147,2330l74 1752c46,453 129,162 145,577 347,233 60,218 581,291 0,-534 3,-1068 3,-1602 -1,-398 -222,-1977 -221,-2983 0,-550 0,-1099 0,-1649l15 1120c1044,6 5529,-129 6173,56 494,-1020 749,-629 746,-425 -4,223 -3,53 -102,211 -113,181 -12,-74 -132,199 389,-57 1122,107 1348,-71 -232,-311 286,29 -88,-46 -98,-20 -878,112 -774,-674 90,-685 389,-499 853,-895 -86,-781 16,-993 333,-1466 522,0 408,72 800,146 1,2 177,584 184,621 62,333 -391,516 221,1087 303,283 208,174 598,111 0,-1 -56,-563 -55,-800 102,-47 199,-99 290,-146 -214,-474 -198,2 -208,-650 0,-8 3,-27 2,-33 -49,-310 -82,254 -66,-482 26,-1247 -100,-391 221,-1143l778 -26 266 337c306,-534 559,-404 1165,-375 -181,570 -406,207 -775,466 -261,457 187,937 546,1144 -134,-306 -181,-548 82,-794 190,-178 1079,-528 1122,605l-3 3023c1359,-210 2013,-492 2857,-1252 458,-412 1583,-1856 1342,-2673 -13,-17 -10,-30 -86,-91 -833,-678 -1284,-937 -1989,-1999 -626,-942 -908,-1960 -1079,-3119 -583,-447 -1912,-305 -2792,-305 -2660,0 -6670,108 -9031,-13 -1744,-89 -3062,-1020 -3813,-2204 -960,-1512 -967,-3080 -264,-4618 439,64 1184,104 1405,-61 -2343,26 -2832,-243 -2812,-2481 20,-2301 2701,-1985 3417,-1643 1014,485 923,1481 881,2736 46,-79 45,-40 85,-213 28,-126 24,-164 28,-291 8,-322 -11,-325 58,-658 200,107 725,-44 1061,-94 514,-339 73,-1658 1630,-1666 504,-3 1197,-47 1672,-4 550,48 975,-170 1233,378l-201 104c-17,8 -40,17 -58,25 -209,101 5,-108 -186,105l-23 249 586 -23c-50,294 -119,385 -193,669l157 185c1688,89 5696,7 7644,7 1307,0 6789,78 7618,-53 3801,-600 5309,-5378 2562,-8029 -196,-189 -874,-808 -1081,-737l0 -7789c0,-455 85,-919 -151,-1164l17 11052 1177 50c95,231 142,252 6,502 -676,171 -20838,81 -21126,-22 -72,-332 -89,-141 37,-445l1190 -67 27 -4894c-129,79 -123,199 -122,517l-68 4149c-32,172 -18,107 -59,189 126,-430 132,-2285 22,-2733 -464,-164 -1640,-13 -3000,-1392 -2747,-2787 -1185,-7394 2645,-8037 2641,-443 5214,811 7550,-1333 651,-598 1348,-1681 1477,-2924 161,-1557 -348,-2502 -978,-3475 -372,84 -625,372 -1196,-201 -150,-150 -59,-76 -187,-254 -57,-81 -37,-46 -95,-125 -221,-304 -271,-420 -312,-879l-683 -133 -159 278 66 567 -527 201c-25,-349 -23,-403 -134,-575 -36,301 319,2372 318,2701 -3,941 -27,614 -186,1248 -116,460 -283,682 -295,703l-702 871c-11,9 -27,23 -39,33l-747 541c-15,8 -35,16 -50,23l-660 286c-688,295 -5441,-102 -6245,128 229,155 1333,64 1715,58 181,266 -10,244 361,404 16,7 45,17 59,23l0 104c0,0 -6,61 -333,18 -896,-119 -2069,119 -3011,-48 -973,-171 -1832,-639 -2420,-1302 -1708,-1929 -1090,-3398 -811,-6015 -122,-130 -21,-11 -156,-382 -6,-14 -11,-41 -23,-59 -635,26 -7921,-106 -8259,77z"/>
   <path class="fil3" d="M44199 25114c0,2998 -76,8302 5,10993 216,7252 9629,12723 16978,7240 550,-410 1017,-903 1471,-1367 1572,-1606 2448,-4068 2447,-6456l0 -10264c0,-983 -393,-1792 -1490,-1856 -443,-25 -2179,518 -2735,647 -4935,1142 -7445,1148 -12356,20 -670,-154 -2153,-640 -2666,-667 -993,-53 -1654,716 -1654,1710z"/>
   <path class="fil2" d="M33737 14871c135,262 616,618 861,903 844,985 1367,2034 1562,3449 230,1665 -433,4341 -1456,5030 1444,292 4308,-614 6101,2278 1312,2116 696,4732 -911,6087 -832,701 -1761,1135 -2983,1170 -3051,88 -7264,3 -10486,3 -877,0 -1695,-41 -1995,45 -180,51 -78,3895 -78,4601 -1,34 -2,362 -3,367 -68,413 65,150 -138,280 -485,327 -425,87 -979,227 35,960 25,929 -941,905 -39,287 51,672 -123,881l-766 99c-4099,-50 -9019,135 -12865,-13 8,-25 23,-85 29,-73 6,11 20,-52 28,-70l172 -445c-36,-823 -554,22 -450,-1384 156,86 101,44 223,150 140,123 309,422 514,570 367,266 603,111 896,-112l-158 -254c-288,43 -170,98 -579,59 -196,-256 -475,-469 -600,-824 137,-269 219,-185 298,-364l-169 -207c-241,95 -144,113 -395,217 -220,-60 -120,-23 -284,-215 -142,-165 -100,-136 -273,-277l-58 2961c5,29 11,46 16,72 6,26 15,51 20,71 52,214 522,242 750,226 314,-23 534,-40 874,-40 673,1 1181,108 1819,104 1423,-9 10208,70 10774,-19l-11393 9c126,440 996,1087 1372,1293 562,308 1248,572 2011,611 1668,87 3552,9 5244,9l7862 0c1107,0 1478,-83 2365,266 -204,-207 -163,-220 -331,-423 -172,-208 -225,-167 -387,-379 138,-752 843,-571 900,-542 302,154 1115,1267 -64,1504 307,135 118,-157 570,-6 489,163 272,312 488,152 5,31 30,252 38,278 56,187 -2,103 120,231 -127,-2087 1039,-2451 2427,-2828 837,-227 882,-43 1568,-52 -11,-525 -59,-2438 77,-2816 267,-743 1282,-1051 1907,-415 523,533 348,1684 348,2544 0,977 21,1975 -6,2949 1226,168 1957,2186 -147,2799l5 2257c399,35 727,-92 811,305 95,455 -142,5819 -45,6752 705,-1072 878,-1786 2341,-2805 1492,-1039 5975,-1938 7982,-2455 908,-234 420,48 1328,-1262l779 -1205c230,-239 160,-70 402,-201l0 -2511c-1697,-897 -894,-331 -2693,-1527l-1130 -983c-184,-181 -330,-338 -494,-527 -178,-206 -352,-361 -511,-581 -1435,-1983 -2082,-3603 -2084,-6463 -710,-71 -1089,-9 -1647,-432 -1233,-936 -1139,-2755 97,-3561 251,-164 557,-230 741,-376l-638 -3763c-554,-3582 -905,-8767 181,-12063 -14,-20 -36,-70 -42,-58l-115 -221 -2858 6c-112,-3 -121,46 -200,-62 63,-91 65,122 61,-218l-37 -215c-5,-22 -13,-51 -24,-76 -24,-10 -59,-45 -75,-21 -16,23 -53,-16 -75,-18 -138,-13 21,-39 -210,-7l-627 339c-908,399 -100,276 -1414,277 -631,0 -2670,96 -3025,33z"/>
   <path class="fil4" d="M32816 65161c1592,73 1483,501 1238,1876 -185,1043 -144,1905 -1442,1976 -140,204 -320,716 -662,1222 -144,213 -259,293 -270,662 -42,1399 -39,2704 1295,3424 1024,551 2144,257 2834,-363 515,-464 1022,-1692 1404,-2454 898,-1791 1712,-3381 2569,-5085l1897 -3768c162,-323 425,-1190 811,-987 279,195 125,1927 119,2469 -8,850 -27,1700 -41,2550 -12,792 -36,1648 -67,2427 -26,644 -95,1876 -28,2470 521,49 2306,-62 2628,84 403,182 352,1210 305,1637 -37,331 -105,238 -244,538l1458 5c-11,-21 -30,-68 -36,-56 -7,12 -28,-40 -36,-53 -3,-4 -97,-144 -98,-145 -88,-164 -78,-151 -96,-353 -54,-623 62,-1278 32,-1558 -34,-310 -38,-537 -38,-851 0,-1229 306,-987 2425,-986 556,0 1124,-12 1678,-4 697,10 786,257 789,917l1 2410c-8,313 -9,299 -182,562l1383 117c-209,-387 -253,-254 -256,-827l82 -2994c-803,-803 -599,19 -325,-2687 76,-754 178,-1456 244,-2186 127,-1417 310,-2929 491,-4320l618 -5358c52,-504 203,-603 -146,-958 -428,-435 -815,-887 -1247,-1236 -425,139 -2033,2193 -2402,2128 -366,-63 -350,-1490 -432,-2145 -69,-545 -109,-1861 -296,-2257 -475,10 -5708,1416 -6605,1652 -916,242 -2002,895 -2582,1489 -977,1001 -1106,1648 -1660,2541 -125,-154 -34,119 -119,-264 -9,-42 -6,-196 -6,-250 -105,150 -289,150 -342,404 -94,455 72,380 -56,774l-59 124c-264,-170 -222,-68 -211,-840l95 -7282 -5523 0c79,3475 -10,7126 -4,10631 1,399 -32,721 -47,1097l4 937c59,1197 47,777 527,1604 340,587 382,985 631,1540z"/>
   <path class="fil4" d="M72460 67528l-28 -484c-16,-415 -99,-124 -145,-577l-74 -1752c1,-1145 -150,-1644 -147,-2330 2,-490 -73,-698 -74,-1163 0,-379 30,-857 -1,-1224 -66,-787 -189,-1293 -214,-2271 -18,-666 -444,-1718 -812,-2257 -1,-3 -100,-133 -122,-165 -10,-14 -23,-31 -32,-45l-279 -446c-13,-16 -52,-63 -65,-79l-610 -618c-353,-343 -411,-279 -724,-509 -479,-353 -306,-180 -782,-444 -631,-349 -1142,-236 -1307,-549 -431,-26 -215,-178 -797,-222 -353,-26 -513,-91 -826,-168 -554,-136 -1062,-277 -1615,-411 -639,-155 -2887,-812 -3313,-787 -129,371 -377,2683 -454,3347 -164,1427 -217,1348 -1532,24 -370,-373 -725,-855 -1144,-1096 -153,93 -1456,1333 -1503,1538 -51,225 1477,12641 1621,13864 59,499 260,840 -151,1149 -201,151 -296,138 -286,423 9,255 29,502 29,773 1,263 -18,434 -37,682l37 1500c-26,428 -80,324 -258,602l1485 8c-332,-524 -317,-457 -277,-1483l-2 -3278c1,-287 54,-563 48,-789 -6,-253 -47,-564 -47,-884 1,-296 43,-569 47,-804l-47 -2468c-4,-560 -94,-1218 512,-1322l3565 -16c920,9 890,537 772,1892l39 2425c29,1100 -107,2255 -13,3277l15 2700c-9,555 -62,362 -263,752l1459 1c-219,-451 -251,-55 -248,-1048 1,-395 64,-771 30,-1124l-30 -2370c0,-300 66,-908 51,-1044 -78,-698 -22,-2678 6,-3414 7,-168 -58,-753 -57,-1078l28 -2247c38,-302 -71,-3291 1,-3569 157,-608 1219,-420 2209,-420 2593,0 2646,-219 2641,1143l7 10555c0,433 -61,757 -23,1101 46,416 46,877 -1,1292 -103,919 292,1367 -237,2207l4351 13c-83,-1049 -129,-2108 -192,-3155 -16,-265 30,-589 3,-795 -35,-268 -105,-195 -101,-658 4,-534 -47,-1167 -86,-1705z"/>
   <path class="fil5" d="M47098 17956c-1929,-4 -3396,-774 -4227,-2367 -526,703 -618,4187 -618,5376 0,2758 360,5126 770,7791l328 1790c74,313 12,375 253,419 102,-164 34,-5338 35,-5923 6,-1103 559,-1848 1562,-2122 838,-229 2228,303 3081,513 5016,1241 7824,1186 12824,-22 878,-213 2137,-722 3025,-483 1855,499 1535,2549 1536,4225l9 3809c295,-15 187,30 320,-808 414,-2598 1329,-10244 -834,-11674 -813,-537 -1208,-243 -2004,-52 -898,215 -233,-1557 -2187,-2752 -2780,-1700 -7271,333 -9818,1336 -1243,489 -2615,947 -4055,944z"/>
   <path class="fil6" d="M34704 24253c1023,-689 1686,-3365 1456,-5030 -195,-1415 -718,-2464 -1562,-3449 -245,-285 -726,-641 -861,-903 -780,-376 -937,-736 -2290,-1124 -974,-279 -2129,-343 -3187,-118 -1582,338 -2386,900 -3385,1858 -124,119 -99,102 -212,223 -78,85 -130,128 -214,223 -1891,2147 -1960,6056 151,8462 178,203 247,271 427,443 97,93 312,303 457,422 1350,1111 1041,-321 1037,3640 -1,1207 3,1761 1360,1759 246,354 148,523 574,946 255,253 603,447 1098,467 1311,54 1605,-1103 1754,-1400 1367,-101 1407,-342 1404,-1700 -6,-3968 -310,-2567 1089,-3765 334,-287 698,-583 904,-954z"/>
   <path class="fil7" d="M31578 63747l-1155 -1352c-54,-66 -59,-72 -97,-152l-1071 -593c-150,-318 -49,-1044 -48,-1467 -376,-26 -715,109 -992,278 -459,280 -363,203 -566,671 -549,1265 -1930,1936 -3312,1529 -732,-215 -986,-632 -1479,-1072 -2353,82 -4260,1596 -4769,3749 -294,1239 -198,2625 238,3688 422,1029 1143,1662 1973,2313l27 2037c425,-30 694,-236 1075,-246 343,-9 749,199 1128,257l-1 -1295 4898 -37 2 1317c427,-28 709,-242 1107,-241 422,0 660,220 1102,231 -61,-2201 -215,-1570 850,-2397 1276,-990 1287,-1769 1704,-2508 891,-84 998,139 1168,-791 87,-479 318,-1374 261,-1809 -401,-173 -979,-77 -1320,-243l-44 -120c-179,-656 -139,-986 -679,-1747z"/>
   <path class="fil4" d="M73774 22029c804,-230 5557,167 6245,-128l660 -286c15,-7 35,-15 50,-23l747 -541c12,-10 28,-24 39,-33l702 -871c12,-21 179,-243 295,-703 159,-634 183,-307 186,-1248 1,-329 -354,-2400 -318,-2701 170,-1403 -1864,-3996 -3581,-4536 -388,-122 -3435,-67 -4038,-42 -1150,48 -1752,11 -2952,1128 -1732,1614 -2070,3482 -2216,5934 -157,2642 1997,4373 4181,4050z"/>
   <path class="fil1" d="M91382 30786l-15 5778 -2912 -8 16 -5905 2829 -1 23 -552 -2953 -4c-104,6 -110,2 -212,27 -295,71 -74,4 -192,75 -188,273 -52,5525 -96,6353l-804 4c-53,-1122 150,-7749 -108,-8105 -165,-143 -1662,-82 -1933,-82 -2519,0 -2025,-773 -2025,4101 0,660 71,3707 -57,4097l-762 -6c-124,-981 179,-4399 -116,-4986 -379,-93 -2359,-41 -3010,-44 -334,-2 -593,-49 -847,79l-68 48 -27 4894 -1190 67c-126,304 -109,113 -37,445 288,103 20450,193 21126,22 136,-250 89,-271 -6,-502l-1177 -50 -17 -11052c-465,-252 -1066,-145 -1887,-146 -439,0 -1746,-91 -2030,75 -250,308 -127,4753 -123,5530 8,1841 60,3761 3,5595l-818 27 7 -5623c51,-862 -36,-631 -169,-712 -185,104 -172,69 -184,532l-229 29z"/>
   <path class="fil1" d="M87380 53067c171,1159 453,2177 1079,3119 705,1062 1156,1321 1989,1999 76,61 73,74 86,91 1122,415 1717,1027 3663,1020 3091,-10 5718,-2029 6561,-4995 102,-361 423,-1736 122,-1992 -127,-129 153,-55 -274,-116l-6144 -5c3,-875 174,-6116 -119,-6473 -660,-270 -2333,274 -2899,524 -2677,1180 -4143,3656 -4064,6828z"/>
   <path class="fil2" d="M20253 52257c-155,180 -219,735 -597,1384 -208,357 -541,749 -850,1052 -1187,1164 -1696,1036 -2295,1348 -118,61 -76,35 -153,103 141,164 -35,32 -131,238 -165,358 -124,1313 -87,1709 115,1238 883,2454 1816,3154 188,142 540,369 762,479 145,71 273,125 395,168 573,203 422,-94 354,267 437,-188 632,-464 1394,-755 569,-217 1195,-226 1704,-402 -180,-949 -257,-1562 242,-2385 880,-1455 2836,-1743 4119,-662 308,260 473,485 643,820 320,629 220,916 384,1170 713,-289 919,-358 1811,-390l-11 1696c150,125 636,396 780,454 -41,278 -65,249 -207,538 38,80 43,86 97,152l1155 1352c203,-543 -931,-732 -801,-1675 401,68 74,68 359,130l48 -13301c-326,204 10,2285 -173,2856 -123,384 -1602,832 -1923,912 -871,218 -7369,40 -8851,109l16 -521z"/>
   <path class="fil8" d="M27102 25624l8 1083 1346 6c66,-565 101,-4335 -29,-4691 -640,-23 -1117,-17 -1466,-499 -340,-470 -255,-1105 127,-1494 395,-401 1006,-463 1485,-127 513,359 495,862 479,1513 364,3 774,44 1112,-68 -35,-742 5,-736 239,-1276l461 -62c64,-224 7,-120 117,-302 578,-68 534,-37 1038,145 -121,111 -210,72 -346,319l-52 110c-7,14 -15,42 -28,60 -857,-118 -796,349 -811,1060 1329,-28 1073,-243 1215,-1474 186,102 19,-16 161,97 533,422 743,2054 -1337,1988 -141,410 -100,4107 -34,4712l1315 -6 28 -1094c218,-207 567,-332 794,-494 297,-212 464,-334 739,-565 1443,-1208 2338,-3644 1845,-5723 -1539,-6478 -10388,-6149 -11753,-115 -548,2421 509,5105 2487,6352 172,109 223,141 401,249 107,65 156,85 233,131l226 165z"/>
   <path class="fil6" d="M16358 56144c77,-68 35,-42 153,-103 599,-312 1108,-184 2295,-1348 309,-303 642,-695 850,-1052 378,-649 442,-1204 597,-1384 -153,-795 444,-1733 -603,-3694 -501,-939 -1408,-1718 -2314,-2137 -1843,-852 -5175,-795 -7010,1027 -2937,2915 -1440,8732 3868,8745 414,1 1942,-102 2164,-54z"/>
   <path class="fil9" d="M8346 38446c251,-104 154,-122 395,-217l169 207c-79,179 -161,95 -298,364 125,355 404,568 600,824 409,39 291,-16 579,-59l158 254c-293,223 -529,378 -896,112 -205,-148 -374,-447 -514,-570 -122,-106 -67,-64 -223,-150 -104,1406 414,561 450,1384l12915 -15 11 -6768 -13323 33 -23 4601z"/>
   <path class="fil8" d="M98357 57071l-2839 -2849c-313,-312 -664,-664 -982,-982 -507,-509 -641,-403 -632,-1263 12,-1161 70,-5092 -27,-5741 -4452,233 -7166,4857 -5406,8776 1310,2918 4401,4277 7450,3480 855,-223 2042,-875 2436,-1421z"/>
   <path class="fil6" d="M7789 37954c173,141 131,112 273,277 164,192 64,155 284,215l23 -4601 13323 -33 -11 6768 -12915 15 -172 445c-8,18 -22,81 -28,70 -6,-12 -21,48 -29,73 3846,148 8766,-37 12865,13l766 -99c174,-209 84,-594 123,-881 966,24 976,55 941,-905 554,-140 494,100 979,-227 13,-1179 131,-7076 -72,-7750 -371,-93 -3806,-102 -4456,-21l-2649 -31c-954,0 -6827,-129 -7214,93 -194,287 -39,507 -130,874 -362,33 -511,-38 -872,89l-80 890c-1161,20 -944,-282 -944,2296 0,807 12,1625 -5,2430z"/>
   <path class="fil8" d="M18860 51769l-4 -230c-159,-78 2,21 -159,-38l-232 -108c-10,-1567 -340,-2397 -1153,-3337 -2530,-2925 -7616,-1355 -7898,2678 -94,1343 412,2516 1136,3360 1186,1381 3244,1908 5021,1219 1400,-542 2149,-1566 2736,-2917 256,-588 -155,-522 553,-627z"/>
   <path class="fil1" d="M69334 15271c-279,2617 -897,4086 811,6015 588,663 1447,1131 2420,1302 942,167 2115,-71 3011,48 327,43 333,-18 333,-18l0 -104c-14,-6 -43,-16 -59,-23 -371,-160 -180,-138 -361,-404 -382,6 -1486,97 -1715,-58 -2184,323 -4338,-1408 -4181,-4050 146,-2452 484,-4320 2216,-5934 1200,-1117 1802,-1080 2952,-1128 603,-25 3650,-80 4038,42 1717,540 3751,3133 3581,4536 111,172 109,226 134,575l527 -201 -66 -567c-197,-1510 -1187,-2920 -2298,-3899 -375,-331 -786,-519 -1288,-810 26,-691 367,-394 -358,-1202 138,-259 246,-320 396,-652 130,-287 199,-524 269,-815 160,-670 514,-1487 180,-1759 -368,-189 -1443,107 -1985,100 -1493,-21 -1912,-623 -3788,-576l-1386 201c-595,157 -505,506 -345,1082 448,1604 125,1039 866,2364 7,13 21,36 30,55 -608,683 -434,257 -367,1220 -1960,1046 -2935,2262 -3567,4660z"/>
   <path class="fil1" d="M50426 36762c-1169,578 -543,3653 1499,5069 2853,1979 6505,409 7350,-2634 354,-1273 375,-2548 -1111,-2548 -1093,0 -7232,-138 -7738,113z"/>
   <path class="fil7" d="M80603 65739c-64,813 -97,7226 57,7507 157,152 4259,58 5094,69 1010,13 800,168 800,-2340l0 -4877c0,-550 -216,-411 -1165,-411 -829,0 -4498,-60 -4786,52z"/>
   <path class="fil1" d="M13359 47418c-1821,309 -3401,2003 -3076,4256 264,1825 2081,3438 4211,3068 1878,-326 3449,-2000 3107,-4207 -286,-1851 -2032,-3492 -4242,-3117z"/>
   <path class="fil1" d="M94852 51774c328,245 6842,85 6871,69 611,-334 -332,-4376 -2781,-5851 -181,-109 -96,-46 -288,-134l-854 -458c-390,-235 -2351,-906 -2890,-565 -246,155 -125,2967 -125,3428 0,654 -126,3104 67,3511z"/>
   <path class="fil10" d="M55252 42100l145 289c936,30 503,-331 986,-642 405,-260 667,-297 1027,-638 534,-506 1074,-1224 1292,-2045 85,-320 244,-1187 171,-1490 -127,-528 -839,-394 -1292,-394 -912,1 -6353,-62 -6766,21 -603,121 -418,793 -334,1299 212,1278 883,2283 1980,3021 780,525 1664,638 2791,579z"/>
   <path class="fil11" d="M93369 30283c5,2069 -82,4241 -10,6273l2888 9c104,-2751 30,-6570 21,-9267l-7 -1396 -2713 -16c-318,45 -212,298 -206,682 17,1231 24,2484 27,3715z"/>
   <path class="fil12" d="M13569 47988c-925,164 -1438,393 -2007,1062 -1795,2107 -207,5431 2782,5131 1751,-176 2882,-1805 2699,-3519 -168,-1570 -1785,-2974 -3474,-2674z"/>
   <path class="fil7" d="M52645 66332l3934 -5c59,-597 -196,-2139 -278,-2815 -114,-938 -219,-1844 -338,-2785 -225,-1765 -349,-3833 -669,-5518 -615,38 -667,183 -1355,-29 -163,500 -852,7147 -993,8304 -98,801 -314,2082 -301,2848z"/>
   <path class="fil7" d="M96308 45458l-969 -94 9 5941 5960 2c-50,-1984 -1015,-3269 -2156,-4502 -225,-243 -505,-340 -838,-543 -264,-161 -656,-397 -916,-507 -591,-250 -357,-291 -726,-601 -102,45 -99,36 -173,96 -11,8 -27,23 -38,33 -11,11 -26,28 -37,39 -12,12 -27,31 -38,42l-78 94z"/>
   <path class="fil1" d="M51397 8538c63,4283 -374,3769 1816,3769 1148,0 1897,337 1888,-949 -6,-940 4,-1880 -2,-2820 123,-11 1482,141 1106,-795l-2338 -2426c-741,-698 -927,-288 -1696,484 -341,342 -582,608 -975,990 -231,225 -832,760 -912,977 -280,769 596,724 1113,770z"/>
   <path class="fil7" d="M79670 42413l23 -249c-541,-41 -2450,-101 -2894,12 -262,223 -807,1653 -986,2116l-1812 4304c-160,397 -880,1814 -802,2187 386,89 2527,97 2809,-12 249,-134 205,-149 335,-473l3327 -7885z"/>
   <path class="fil13" d="M93644 22772c-69,47 -122,88 -186,144l-368 359c-128,146 -60,88 -177,187l-1332 1294c-356,340 -550,616 -982,965 -1701,-594 -1294,552 -2032,295 -367,-128 -2058,-673 -2159,-828 -250,-180 -46,-1400 -1382,-1370 -920,21 -1344,759 -1192,1660 -84,80 -460,347 -629,439l-2111 1356c-263,-51 -376,-242 -808,-293 -366,-43 -723,61 -936,245 -1167,1004 -56,2733 1307,2186 727,-291 728,-828 726,-1603 345,-249 779,-503 1106,-714 2458,-1578 1314,-929 2339,-770 605,94 977,-165 1289,-509 470,48 1900,679 2524,857 20,1043 738,1566 1545,1388 711,-156 1360,-1118 842,-1892l2881 -2803c247,-246 230,-176 591,-91 416,99 882,32 1189,-306 1240,-1361 -778,-3033 -1868,-1729 -527,631 -142,949 -177,1533z"/>
   <path class="fil0" d="M36687 73853l4101 -6c-47,-133 -198,-180 -251,-477 -42,-234 -131,-1455 258,-1691 317,-144 681,-55 1085,-98l183 -8280c-227,179 -564,970 -739,1309l-4637 9243z"/>
   <path class="fil8" d="M83613 36559l2826 6c100,-304 112,-7155 16,-7645l-2859 7c-92,485 -77,7344 17,7632z"/>
   <path class="fil3" d="M51116 48253c644,203 3156,1525 3481,1527l3088 -1351c188,-85 288,-133 405,-239l-2 -2561c-1517,268 -1421,511 -3492,503 -639,-3 -1274,-38 -1873,-151 -499,-94 -1127,-307 -1602,-358l-5 2630z"/>
   <polygon class="fil14" points="91382,30786 91300,30650 88471,30651 88455,36556 91367,36564 "/>
   <path class="fil1" d="M79761 47118c-583,128 -976,487 -1176,970 -160,387 -193,1547 -85,2032 278,1237 1707,1481 2983,1224 1391,-281 1465,-1972 1250,-2989 -293,-1388 -1966,-1459 -2972,-1237z"/>
   <path class="fil15" d="M72898 6446c-38,402 435,1936 644,2277 96,158 198,284 313,408 370,397 1103,247 2070,264 507,9 1021,-4 1529,-1 800,4 723,109 1133,-401 280,-349 367,-472 522,-1023 112,-395 269,-877 288,-1309 -2946,666 -3533,-927 -6499,-215z"/>
   <path class="fil1" d="M72885 45866c786,-98 1355,-647 1486,-1388 42,-1255 133,-2251 -881,-2736 -716,-342 -3397,-658 -3417,1643 -20,2238 469,2507 2812,2481z"/>
   <path class="fil1" d="M75897 16889l12 1450c-426,42 -711,-175 -1001,-364 -387,-252 -907,-260 -872,293 38,617 1260,820 1837,1004 13,335 -87,794 346,809 458,15 338,-455 393,-811 2193,-489 1879,-2069 1149,-2690 -416,-353 -806,-315 -1124,-528 -11,-19 -22,-71 -25,-61l-58 -630c4,-261 2,-518 -5,-779 522,81 709,329 988,363 567,68 976,-755 -412,-1144 -902,-253 -242,-1 -707,-599 -510,-68 -388,49 -553,335 -127,221 157,71 -258,192 -366,107 -1150,256 -1347,1060 -413,1692 1298,1893 1637,2100z"/>
   <path class="fil9" d="M50876 7964l1064 -1 36 3792 2561 -6 10 -3799 1081 9c-50,-246 -2082,-1946 -2282,-2412 -339,137 -2240,2036 -2470,2417z"/>
   <path class="fil7" d="M45766 7606l28 179c173,45 92,-37 144,150l-6 2214 -1091 18c358,454 1491,1525 2029,2071l374 308 2216 -2179c148,-188 25,4 143,-220l-1073 10 -28 -3794 -2508 6c-124,309 -53,844 -60,1202 -95,76 84,78 -168,35z"/>
   <path class="fil8" d="M24619 57945c-2909,834 -1547,4931 1096,4174 1019,-292 1886,-1359 1519,-2678 -275,-990 -1394,-1846 -2615,-1496z"/>
   <path class="fil1" d="M75603 43222c-79,377 -329,891 -482,1253l-2482 5894c-414,1296 1345,1021 2267,1022 2096,2 1513,55 3124,-3650l1951 -4589c70,-109 28,-59 82,-93 74,-284 143,-375 193,-669l-586 23 -3327 7885c-130,324 -86,339 -335,473 -282,109 -2423,101 -2809,12 -78,-373 642,-1790 802,-2187l1812 -4304c179,-463 724,-1893 986,-2116 444,-113 2353,-53 2894,-12 191,-213 -23,-4 186,-105 18,-8 41,-17 58,-25l201 -104c-258,-548 -683,-330 -1233,-378 -475,-43 -1168,1 -1672,4 -1557,8 -1116,1327 -1630,1666z"/>
   <path class="fil4" d="M55143 50200c223,396 1672,1741 2119,2168 353,336 1932,1995 2202,2083 95,-1069 257,-2241 413,-3304 144,-976 -119,-1026 -780,-1997l-424 -542 -3530 1592z"/>
   <path class="fil4" d="M49752 54420c233,-20 207,-107 533,-421 481,-463 3590,-3422 3772,-3814 -493,-150 -1280,-568 -1760,-783 -488,-218 -1334,-655 -1777,-782 -186,185 -569,819 -735,1089 -381,619 -500,480 -394,1368 131,1088 283,2231 361,3343z"/>
   <path class="fil16" d="M34344 46007c-170,-2043 572,-1559 1462,-2111 -54,-926 -588,-1820 -1524,-1945 -756,-101 -2226,425 -2586,883 -1015,1293 181,4421 2648,3173z"/>
   <polygon class="fil9" points="78691,36531 81599,36565 81611,32114 78684,32103 "/>
   <path class="fil11" d="M98875 56640c759,-784 1562,-2491 1550,-3859 -1462,-83 -3823,-25 -5495,-18l3730 3778c160,109 -1,54 215,99z"/>
   <path class="fil1" d="M45766 7606c252,43 73,41 168,-35 7,-358 -64,-893 60,-1202l2508 -6 28 3794 1073 -10c-118,224 5,32 -143,220l-2216 2179 -374 -308c-538,-546 -1671,-1617 -2029,-2071l1091 -18 6 -2214c-52,-187 29,-105 -144,-150 -231,-114 -159,-144 -381,-289 -69,596 -22,1432 -40,2069 -260,57 -2058,-74 -684,1288l1893 1893c815,837 953,331 2685,-1407 204,-205 849,-786 920,-971 354,-912 -989,-776 -1113,-793 -49,-3227 427,-3777 -1028,-3765 -2488,20 -2738,-263 -2598,975 86,762 -37,240 318,821z"/>
   <path class="fil15" d="M27110 28947c511,15 1005,1 1499,8 364,5 1310,-158 1285,302 -24,427 -851,277 -1213,284 -516,11 -1051,-12 -1561,15 -1,429 192,529 608,532l3647 1c757,-1 890,-74 741,-1680 -623,22 -2290,126 -2733,-60 -243,-1028 1587,-236 2723,-541l26 -451c-1326,-128 -3545,-60 -5027,-42l5 1632z"/>
   <path class="fil7" d="M52339 52846c194,304 695,760 984,1058 1190,1231 1520,1050 2571,24 291,-285 880,-775 1032,-1095l-2305 -2270c-211,159 -423,394 -585,560 -173,177 -355,365 -576,589 -335,338 -759,763 -1121,1134z"/>
   <path class="fil3" d="M9271 36252c0,814 -185,2309 113,2548 272,218 740,29 888,640 108,442 -76,486 938,486 534,0 2733,196 2184,-478 -340,-255 -2030,-69 -2574,-134 42,-516 993,-683 26,-1565l-260 244c283,364 395,337 124,748l-867 -451 22 -2184c872,-370 628,-395 1054,-1021l746 -12c358,458 1250,1819 1584,2099l251 -189c-122,-318 -327,-308 -339,-752 624,-16 964,342 1375,-52l-1291 -359c-29,-623 265,-875 151,-1252 -265,-69 -2644,-126 -2893,-33 -356,133 -30,597 -550,893 -570,325 -682,-132 -682,824z"/>
   <path class="fil7" d="M71329 42208c-1035,430 -729,2144 -607,2445 389,965 2146,689 2451,565 945,-384 678,-2144 570,-2419 -378,-965 -2087,-727 -2414,-591z"/>
   <path class="fil7" d="M79023 48991c0,1393 96,1836 1634,1834 1463,-2 1555,-576 1555,-1834 0,-1381 -797,-1361 -1992,-1359 -820,2 -1197,497 -1197,1359z"/>
   <path class="fil3" d="M32483 46769c-18,498 -109,1567 41,1939 94,51 -78,13 171,55 400,67 3519,11 3678,-14l20 -2013c-432,-21 -568,160 -1051,48 -396,-92 -439,-320 -864,-219 -1108,265 -780,272 -1995,204z"/>
   <path class="fil1" d="M59853 29773c-1180,699 -743,4393 608,3616 1105,-636 674,-4376 -608,-3616z"/>
   <path class="fil1" d="M48904 29773c-1168,568 -828,4124 471,3670 601,-210 812,-1334 759,-2144 -41,-636 -436,-1911 -1230,-1526z"/>
   <path class="fil1" d="M13711 51175l18 861c-585,-61 -473,-394 -1055,-272 -84,570 268,579 1011,815 68,258 -45,228 146,457 332,-20 184,-7 287,-260 128,-315 -156,-115 306,-283 293,-107 536,-244 631,-535 287,-882 -490,-1072 -960,-1323l7 -786c408,15 351,338 845,114 51,-349 -78,-427 -385,-539 -163,-59 -252,-57 -369,-143 -203,-148 70,-96 -289,-262 -177,100 -12,6 -130,131 -346,365 -909,206 -1024,867 -145,834 396,886 961,1158z"/>
   <path class="fil12" d="M24709 58839c-1742,749 -558,2954 868,2418 1668,-627 660,-3075 -868,-2418z"/>
   <path class="fil3" d="M43638 34686l11 -3153c-1025,-132 -1955,510 -1960,1588 -5,1038 917,1793 1949,1565z"/>
   <path class="fil3" d="M65676 34687c1645,358 2573,-1665 1440,-2729 -195,-183 -491,-349 -822,-410 -708,-131 -640,41 -630,625 15,824 -34,1699 12,2514z"/>
   <path class="fil8" d="M58549 71585c573,49 3448,90 3771,-32 118,-225 114,-924 10,-1161 -376,-135 -3165,-81 -3768,-35l-13 1228z"/>
   <path class="fil17" d="M41061 73358l1496 -16 -16 564 282 -5 60 -483c578,-184 1361,10 1980,-94l15 -1199 -3807 -32c-88,361 -70,897 -10,1265z"/>
   <path class="fil8" d="M58546 73339c649,38 3382,104 3779,-36 108,-229 116,-942 -11,-1156 -356,-135 -3145,-70 -3745,-36l-23 1228z"/>
   <path class="fil8" d="M58552 69831c574,36 3453,88 3752,-34 157,-225 97,-851 62,-1184l-3811 -26 -3 1244z"/>
   <path class="fil8" d="M64402 64565c673,-11 3431,68 3813,-54l12 -1131c-369,-135 -3222,-66 -3838,-61l13 1246z"/>
   <path class="fil8" d="M56521 71587l26 -1228 -3816 -15c-208,1623 107,1261 1210,1257 832,-3 1761,35 2580,-14z"/>
   <path class="fil8" d="M50659 71600l38 -1256 -3797 2c-257,1635 193,1260 1218,1255 844,-4 1697,-14 2541,-1z"/>
   <path class="fil8" d="M64443 61050l3771 -9 11 -1182c-651,-146 -3023,-47 -3841,-49 5,403 -55,859 59,1240z"/>
   <path class="fil8" d="M64445 66316l3709 16c145,-334 76,-863 59,-1233l-3820 -25c-11,405 -55,858 52,1242z"/>
   <path class="fil8" d="M64444 69843l3725 -4 53 -1232 -3814 -22c-39,379 -73,899 36,1258z"/>
   <path class="fil8" d="M64387 61876l28 927 3799 -11 11 -1182c-955,-98 -2756,-52 -3837,-47l-1 313z"/>
   <path class="fil8" d="M46866 73312c319,79 2265,34 2853,35 169,0 349,7 515,5l327 -35c235,-63 314,-1132 -59,-1200 -75,-13 -118,-15 -195,-18l-3431 35 -10 1178z"/>
   <polygon class="fil8" points="52719,69828 56513,69840 56550,68600 52725,68587 "/>
   <path class="fil8" d="M64379 72577l12 739 3825 29 4 -1212c-733,-70 -2093,-29 -2923,-32 -733,-2 -933,-207 -918,476z"/>
   <path class="fil8" d="M64400 71600l3746 -5c131,-261 126,-979 11,-1217l-3739 -36 -18 1258z"/>
   <path class="fil8" d="M58548 64543c114,10 3633,88 3769,-43 122,-117 66,-980 63,-1148l-3836 -33 4 1224z"/>
   <path class="fil8" d="M64440 68064l3720 18c121,-314 78,-884 44,-1226l-3801 -22c-33,396 -60,850 37,1230z"/>
   <path class="fil0" d="M23101 73014c0,527 13,443 -171,834l4104 -14c-336,-792 -59,-647 -208,-1222l-3240 1c-477,-1 -484,-88 -485,401z"/>
   <polygon class="fil8" points="52713,73330 56524,73346 56543,72112 52740,72103 "/>
   <polygon class="fil8" points="64392,59296 68208,59281 68225,58080 64384,58052 "/>
   <polygon class="fil8" points="52734,68075 56528,68067 56548,66848 52737,66834 "/>
   <polygon class="fil8" points="58546,68054 62328,68070 62365,66834 58552,66837 "/>
   <path class="fil8" d="M58548 66299l3608 7c20,-4 41,-11 58,-16 317,-76 176,-867 163,-1182l-3829 -33 0 1224z"/>
   <path class="fil3" d="M36674 44294c-506,123 -1475,271 -1722,705 -397,698 203,1398 944,1227 269,-62 643,-185 908,-265 383,-114 588,-143 775,-446 410,-665 -180,-1396 -905,-1221z"/>
   <path class="fil4" d="M9755 84880c0,103 -15,246 16,342 69,210 36,68 220,240 1,883 -161,1730 928,1597l42 -360c-228,-169 -384,-27 -466,-373 -37,-161 -12,-769 -12,-974l728 9c59,1154 -95,1833 1001,1698l-1 -360c-447,-320 -489,222 -491,-1348l492 1c84,-158 57,-146 55,-400l-547 -73 -7 -781 -445 207 -25 537 -761 43 -4 -797c-1045,431 -39,719 -723,792z"/>
   <path class="fil15" d="M14110 86699c-439,-384 -285,-235 -564,-127 -253,97 -621,161 -573,-352l1211 -8c-1,-629 30,-1148 -518,-1325 -1580,-511 -1438,1848 -880,2132 549,278 1157,66 1324,-320z"/>
   <path class="fil4" d="M7788 86190c1,1080 808,1091 1720,772l31 -2082 -496 9c10,1040 39,1388 -46,1713 -5,16 -12,41 -22,61 -983,268 -695,-991 -694,-1767l-492 -20 -1 1314z"/>
  </g>
  <path class="fil3" d="M20755 36252c0,814 185,2309 -112,2548 -272,218 -740,29 -889,640 -107,442 77,486 -938,486 -533,0 -2732,196 -2184,-478 341,-255 2031,-69 2575,-134 -43,-516 -993,-683 -27,-1565l261 244c-283,364 -396,337 -124,748l867 -451 -22 -2184c-873,-370 -628,-395 -1055,-1021l-746 -12c-358,458 -1249,1819 -1583,2099l-252 -189c123,-318 328,-308 339,-752 -623,-16 -963,342 -1374,-52l1291 -359c29,-623 -265,-875 -152,-1252 265,-69 2644,-126 2894,-33 356,133 30,597 549,893 570,325 682,-132 682,824z"/>
  <path class="fil18" d="M14820 40114l0 -579c-330,-36 -599,-101 -806,-194 -208,-93 -386,-245 -537,-452 -151,-208 -237,-461 -262,-762l663 -111c51,312 142,541 273,687 185,206 409,321 669,345l0 -1816c-273,-61 -550,-162 -834,-302 -211,-101 -373,-244 -487,-426 -115,-183 -171,-389 -171,-620 0,-411 167,-745 500,-1000 222,-171 554,-276 992,-314l0 -277 392 0 0 277c383,31 687,131 912,297 288,210 461,499 520,867l-678 92c-39,-229 -121,-406 -245,-528 -123,-122 -293,-202 -509,-242l0 1666c333,75 553,133 661,173 206,79 373,176 502,290 131,113 230,248 301,404 69,156 104,326 104,508 0,400 -146,733 -437,1002 -292,267 -669,409 -1131,429l0 586 -392 0zm0 -5064c-256,34 -460,123 -607,270 -148,146 -222,318 -222,518 0,197 63,362 189,495 125,133 339,234 640,302l0 -1585zm392 3998c258,-27 470,-125 638,-293 167,-166 252,-373 252,-619 0,-210 -60,-378 -179,-506 -119,-127 -357,-230 -711,-310l0 1728z"/>
  <path class="fil16 str0" d="M36003 38214l0 0c421,0 764,340 764,756l0 2589c0,1017 298,3731 -740,1729 -192,-371 -788,-1313 -788,-1729l0 -2589c0,-416 344,-756 764,-756z"/>
 </g>
</svg>
